<?xml version="1.0" standalone="no"?>
<!DOCTYPE svg PUBLIC "-//W3C//DTD SVG 1.1//EN" "http://www.w3.org/Graphics/SVG/1.1/DTD/svg11.dtd" >
<svg>
<metadata>
Created by FontForge 20090622 at Tue Jul 21 19:12:57 2015
 By deploy user
&#194;&#169; 2015 Connary Fagen
</metadata>
<defs>
<font id="VisbyCF-ExtraBold" horiz-adv-x="815" >
  <font-face 
    font-family="Visby CF Extra Bold"
    font-weight="800"
    font-stretch="normal"
    units-per-em="1000"
    panose-1="0 0 9 0 0 0 0 0 0 0"
    ascent="800"
    descent="-200"
    x-height="520"
    cap-height="700"
    bbox="-190 -250.661 1240 989"
    underline-thickness="50"
    underline-position="-50"
    unicode-range="U+0020-U+FB02"
  />
<missing-glyph horiz-adv-x="500" 
d="M0 0v700h500v-700h-500zM250 395l170 255h-340zM280 350l170 -255v510zM80 50h340l-170 255zM50 605v-510l170 255z" />
    <glyph glyph-name="fi" unicode="fi" horiz-adv-x="646" 
d="M85 520v16q0 54 18 90.5t48 53t56 22.5t55 6q64 0 117 -28l-44 -95q-26 10 -66 10q-10 0 -17.5 -2t-12.5 -4.5t-8.5 -7.5t-5 -8.5t-2.5 -10.5t-1 -9.5v-9.5v-8v-15h98v-117h-98v-403h-137v403h-65v117h65zM449 520h137v-520h-137v520z" />
    <glyph glyph-name="fl" unicode="fl" horiz-adv-x="644" 
d="M432 700h139v-700h-139v554q-29 20 -55.5 28t-70.5 8q-47 0 -73 -19t-26 -46v-5h116v-117h-116v-403h-137v403h-50v117h50v5q0 51 24.5 89t63.5 57t76 27.5t72 8.5q63 0 126 -26v19z" />
    <glyph glyph-name="f_f" unicode="ff" horiz-adv-x="836" 
d="M683 595q-49 0 -49 -62v-13h121v-117h-121v-403h-137v403h-275v-403h-137v403h-65v117h65v16q0 54 18 90.5t48 53t56 22.5t55 6q68 0 131 -33l-44 -94q-41 14 -80 14q-10 0 -17.5 -2t-12.5 -4.5t-8.5 -7.5t-5 -8.5t-2.5 -10.5t-1 -9.5v-9.5v-8v-15h275v16q0 54 18 90.5
t48 53t56 22.5t55 6q69 0 132 -33l-44 -94q-42 14 -79 14z" />
    <glyph glyph-name=".notdef" horiz-adv-x="500" 
d="M0 0v700h500v-700h-500zM250 395l170 255h-340zM280 350l170 -255v510zM80 50h340l-170 255zM50 605v-510l170 255z" />
    <glyph glyph-name=".null" horiz-adv-x="0" 
 />
    <glyph glyph-name="nonmarkingreturn" horiz-adv-x="333" 
 />
    <glyph glyph-name="space" unicode=" " horiz-adv-x="300" 
 />
    <glyph glyph-name="exclam" unicode="!" horiz-adv-x="311" 
d="M233 700v-476h-154v476h154zM231 150v-150h-151v150h151z" />
    <glyph glyph-name="quotedbl" unicode="&#x22;" horiz-adv-x="478" 
d="M182 700v-175h-137v175h137zM433 700v-175h-137v175h137z" />
    <glyph glyph-name="numbersign" unicode="#" horiz-adv-x="550" 
d="M505 403h-54l-8 -105h62v-118h-70l-13 -180h-137l13 180h-75l-13 -180h-137l13 180h-41v118h49l8 105h-57v117h65l13 180h137l-13 -180h75l13 180h137l-13 -180h46v-117zM306 298l8 105h-75l-8 -105h75z" />
    <glyph glyph-name="dollar" unicode="$" horiz-adv-x="593" 
d="M553 199q0 -83 -56 -134t-135 -66v-89h-117v88q-75 12 -128.5 54t-76.5 105l116 51q16 -40 55 -66.5t89 -26.5q45 0 78 21t33 63q0 39 -24.5 60t-89.5 44l-31 12q-92 32 -143 80t-51 126q0 69 49 117.5t124 63.5v88h117v-90q60 -13 104.5 -49t68.5 -82l-123 -41
q-29 57 -107 57q-39 0 -65.5 -17.5t-26.5 -46.5q0 -28 19 -46t71 -36l32 -10q115 -39 166.5 -96.5t51.5 -133.5z" />
    <glyph glyph-name="percent" unicode="%" horiz-adv-x="698" 
d="M159 705q52 0 88 -35.5t36 -87.5t-36 -87.5t-88 -35.5t-88 35.5t-36 87.5t36 87.5t88 35.5zM501 702l108 -68l-425 -634l-110 68zM159 604q-9 0 -15 -6.5t-6 -15.5t6 -15.5t15 -6.5t15 6.5t6 15.5t-6 15.5t-15 6.5zM539 241q52 0 88 -35.5t36 -87.5t-36 -87.5t-88 -35.5
t-88 35.5t-36 87.5t36 87.5t88 35.5zM539 140q-9 0 -15 -6.5t-6 -15.5t6 -15.5t15 -6.5t15 6.5t6 15.5t-6 15.5t-15 6.5z" />
    <glyph glyph-name="ampersand" unicode="&#x26;" horiz-adv-x="722" 
d="M629 111q37 0 67 24v-118q-30 -23 -81 -23q-111 0 -111 112v3q-68 -119 -219 -119q-94 0 -166 61t-72 163q0 87 45.5 140t109.5 68l-117 278h447v-117h-269l102 -253q-15 1 -37 1q-79 1 -111.5 -33.5t-32.5 -80.5q0 -44 31.5 -76.5t89.5 -32.5q57 0 101 32.5t44 99.5v185
h180v-117h-43v-141q0 -33 11 -44.5t31 -11.5z" />
    <glyph glyph-name="quotesingle" unicode="'" horiz-adv-x="227" 
d="M182 700v-175h-137v175h137z" />
    <glyph glyph-name="parenleft" unicode="(" horiz-adv-x="332" 
d="M151 745h132q-101 -183 -101 -425q0 -256 101 -450h-132q-106 189 -106 450q0 248 106 425z" />
    <glyph glyph-name="parenright" unicode=")" horiz-adv-x="332" 
d="M45 745h132q106 -177 106 -425q0 -261 -106 -450h-132q101 194 101 450q0 242 -101 425z" />
    <glyph glyph-name="asterisk" unicode="*" horiz-adv-x="523" 
d="M448 546l-95 -26l66 -88l-98 -60l-59 85l-60 -85l-98 60l66 88l-95 26l27 114l106 -31l-3 112h111l-1 -112l106 31z" />
    <glyph glyph-name="plus" unicode="+" horiz-adv-x="425" 
d="M380 331v-112h-118v-105h-112v105h-105v112h105v118h112v-118h118z" />
    <glyph glyph-name="comma" unicode="," horiz-adv-x="277" 
d="M49 -135l19 155h184l-78 -155h-125z" />
    <glyph glyph-name="hyphen" unicode="-" horiz-adv-x="400" 
d="M355 331v-112h-310v112h310z" />
    <glyph glyph-name="period" unicode="." horiz-adv-x="226" 
d="M189 150v-150h-152v150h152z" />
    <glyph glyph-name="slash" unicode="/" horiz-adv-x="570" 
d="M525 745l-340 -875h-140l340 875h140z" />
    <glyph glyph-name="zero" unicode="0" horiz-adv-x="692" 
d="M346 707q126 0 213.5 -90t87.5 -254v-26q0 -164 -87.5 -254t-213.5 -90t-213.5 90.5t-87.5 253.5v26q0 163 87.5 253.5t213.5 90.5zM346 590q-46 0 -79.5 -21t-51 -55.5t-25.5 -72t-8 -78.5v-26q0 -41 8 -78.5t25.5 -72t51 -55t79.5 -20.5t79.5 20.5t51 55t25.5 72
t8 78.5v26q0 41 -8 78.5t-25.5 72t-51 55.5t-79.5 21z" />
    <glyph glyph-name="one" unicode="1" horiz-adv-x="379" 
d="M306 700v-700h-137v583h-116v117h253z" />
    <glyph glyph-name="two" unicode="2" horiz-adv-x="561" 
d="M280 707q104 0 172 -67.5t68 -152.5q0 -65 -30.5 -116.5t-134.5 -173.5l-68 -78h223v-119h-469v37l166 199l51 60.5l42 49.5l30.5 37t24 32t14 24.5t9.5 25t2 22.5q0 54 -31.5 77t-68.5 23q-34 0 -64 -23.5t-30 -71.5v-19h-140v19q0 83 65 149t169 66z" />
    <glyph glyph-name="three" unicode="3" horiz-adv-x="604" 
d="M572 700l-153 -267q59 -15 98.5 -71t39.5 -132q0 -109 -75.5 -174.5t-182.5 -65.5q-109 0 -180 64.5t-71 158.5l137 -1q0 -53 36.5 -78.5t77.5 -25.5q17 0 35.5 5t39 17t33.5 38t13 62q0 57 -52 95.5t-141 22.5l132 235h-286v117h499z" />
    <glyph glyph-name="four" unicode="4" horiz-adv-x="590" 
d="M480 700v-395h75v-118h-75v-187h-137v187h-310v21l398 492h49zM343 415l-70 -110h70v110z" />
    <glyph glyph-name="five" unicode="5" horiz-adv-x="586" 
d="M476 700v-117h-248l-13 -117q10 -4 12.5 -3t21.5 4.5t42 3.5q102 0 176 -67.5t74 -172.5q0 -103 -72.5 -172t-172.5 -69q-94 0 -151.5 38t-94.5 105l109 54q6 -4 17.5 -19t22.5 -27t37 -22.5t60 -10.5t71 30.5t37 92.5q0 36 -12.5 62t-31.5 38t-36 17t-33 5h-13.5h-12
h-10t-10.5 -1t-9 -2t-10 -2.5l-10.5 -4t-12.5 -6t-14 -7.5l-121 26l44 344h364z" />
    <glyph glyph-name="six" unicode="6" horiz-adv-x="564" 
d="M473 700l-176 -244q0 -8 -7 -12q84 0 155.5 -71t71.5 -160q0 -95 -71 -159t-162 -64q-92 0 -164.5 64t-72.5 159q0 35 6.5 66.5t21.5 60.5t25.5 46.5t32.5 47.5l29 40l160 226h151zM283 317q-50 0 -79 -31.5t-29 -72.5q0 -46 30.5 -75t77.5 -29q46 0 75 29t29 75
q0 40 -29.5 72t-74.5 32z" />
    <glyph glyph-name="seven" unicode="7" horiz-adv-x="545" 
d="M510 700l-270 -700h-145l225 583h-295v117h485z" />
    <glyph glyph-name="eight" unicode="8" horiz-adv-x="579" 
d="M428 399q49 -23 80 -71.5t31 -108.5q0 -100 -77 -163t-172 -63q-96 0 -173 63t-77 163q0 60 31 108.5t80 71.5q-64 53 -64 126q0 76 56.5 129t146.5 53q89 0 145.5 -53t56.5 -129q0 -73 -64 -126zM221 518q0 -29 20 -50.5t49 -21.5t48.5 21.5t19.5 50.5t-20.5 49
t-47.5 20q-28 0 -48.5 -20t-20.5 -49zM290 116q42 0 72.5 29t30.5 74q0 51 -31.5 80t-71.5 29q-41 0 -72.5 -29t-31.5 -80q0 -45 30.5 -74t73.5 -29z" />
    <glyph glyph-name="nine" unicode="9" horiz-adv-x="564" 
d="M91 -1l176 244q0 8 7 12q-83 0 -155 71t-72 160q0 95 71 159t162 64q92 0 164.5 -64t72.5 -159q0 -35 -6.5 -66.5t-21.5 -60.5t-25.5 -46.5t-32.5 -47.5l-29 -40l-160 -226h-151zM282 382q49 0 78 31.5t29 72.5q0 46 -30 75t-77 29q-46 0 -75.5 -29t-29.5 -75
q0 -40 30 -72t75 -32z" />
    <glyph glyph-name="colon" unicode=":" horiz-adv-x="268" 
d="M194 517v-150h-152v150h152zM194 150v-150h-152v150h152z" />
    <glyph glyph-name="semicolon" unicode=";" horiz-adv-x="288" 
d="M204 604v-150h-152v150h152zM10 -135l19 155h184l-78 -155h-125z" />
    <glyph glyph-name="less" unicode="&#x3c;" horiz-adv-x="497" 
d="M462 481v-127l-225 -114l225 -112v-128l-417 219v43z" />
    <glyph glyph-name="equal" unicode="=" horiz-adv-x="426" 
d="M381 411v-112h-335v112h335zM381 251v-112h-335v112h335z" />
    <glyph glyph-name="greater" unicode="&#x3e;" horiz-adv-x="497" 
d="M35 481l417 -219v-43l-417 -219v128l225 112l-225 114v127z" />
    <glyph glyph-name="question" unicode="?" horiz-adv-x="550" 
d="M279 707q93 0 162 -58.5t69 -152.5q0 -45 -14 -77t-34 -50l-39.5 -35t-33.5 -43.5t-14 -64.5v-7h-142v7q0 46 14.5 80.5t35 55t41 38t35 41.5t14.5 55q0 15 -3.5 29t-12.5 30t-28.5 25.5t-48.5 9.5q-55 0 -79 -33.5t-24 -74.5h-137q0 103 72 164t167 61zM380 150v-150
h-152v150h152z" />
    <glyph glyph-name="at" unicode="@" horiz-adv-x="807" 
d="M462 511v6h95q-64 67 -148 67q-94 0 -162.5 -68t-68.5 -170q0 -97 67 -164.5t156 -67.5q73 0 133 47l119 -50q-45 -55 -109.5 -86.5t-134.5 -31.5q-90 0 -172.5 44t-136.5 126.5t-54 182.5q0 103 54 187.5t136.5 129t172.5 44.5q139 0 243.5 -102.5t104.5 -258.5
q0 -86 -44 -133.5t-113 -47.5q-41 0 -68.5 13.5t-35.5 31.5q-7 -15 -35.5 -30t-65.5 -15q-65 0 -116.5 48t-51.5 134q0 85 52 133.5t116 48.5q43 0 67 -18zM625 347q0 92 -59 161v-186q0 -19 7 -27t24 -8q13 0 19.5 9t7.5 20t1 31zM396 283q31 0 44.5 21t13.5 44
q0 74 -58 74q-55 0 -55 -74q0 -22 13 -43.5t42 -21.5z" />
    <glyph glyph-name="A" unicode="A" horiz-adv-x="747" 
d="M386 700l326 -700h-154l-79 180h-210l-80 -180h-154l326 700h25zM374 436l-64 -137h128z" />
    <glyph glyph-name="B" unicode="B" horiz-adv-x="644" 
d="M465 388q134 -61 134 -180q0 -95 -69 -151.5t-192 -56.5h-275v700h265q96 0 155.5 -47t59.5 -139q0 -89 -78 -126zM202 433h126q36 0 57 19t21 56q0 35 -21.5 54t-56.5 19h-126v-148zM202 119h152q53 0 80.5 28t27.5 69q0 40 -27.5 69.5t-80.5 29.5h-152v-196z" />
    <glyph glyph-name="C" unicode="C" horiz-adv-x="667" 
d="M393 707q137 0 232 -87l-87 -104q-64 55 -142 55q-83 0 -142 -64.5t-59 -156.5t59 -156.5t142 -64.5q75 0 145 58l86 -104q-98 -90 -234 -90q-88 0 -168.5 44.5t-132.5 127.5t-52 184q0 102 52 185.5t132.5 128t168.5 44.5z" />
    <glyph glyph-name="D" unicode="D" horiz-adv-x="730" 
d="M75 700h251q148 0 251 -101t103 -245q0 -149 -102.5 -251.5t-251.5 -102.5h-251v700zM216 119h110q99 0 156 66t57 169q0 98 -57.5 162.5t-155.5 64.5h-110v-462z" />
    <glyph glyph-name="E" unicode="E" horiz-adv-x="584" 
d="M193 123h338v-123h-483v700h473v-123h-328v-164h228v-123h-228v-167z" />
    <glyph glyph-name="F" unicode="F" horiz-adv-x="557" 
d="M524 577h-328v-171h272v-124h-272v-282h-143v700h471v-123z" />
    <glyph glyph-name="G" unicode="G" horiz-adv-x="761" 
d="M477 355h244q10 -162 -84 -262t-236 -100q-145 0 -253.5 101.5t-108.5 255.5q0 153 108 255t250 102q149 0 237 -101l-87 -96q-54 61 -147 61q-83 0 -144.5 -63.5t-61.5 -156.5t62.5 -157.5t147.5 -64.5q58 0 101 27t63 76h-91v123z" />
    <glyph glyph-name="H" unicode="H" horiz-adv-x="731" 
d="M522 700h141v-700h-141v289h-313v-289h-141v700h141v-291h313v291z" />
    <glyph glyph-name="I" unicode="I" horiz-adv-x="265" 
d="M204 700v-700h-143v700h143z" />
    <glyph glyph-name="J" unicode="J" horiz-adv-x="554" 
d="M489 700v-464q0 -66 -22 -115.5t-58.5 -76t-75.5 -39t-80 -12.5q-136 0 -208 84l91 91q38 -50 110 -50q106 0 106 122v460h137z" />
    <glyph glyph-name="K" unicode="K" horiz-adv-x="769" 
d="M699 700l-277 -349l309 -351h-166l-223 254l-132 -165v-89h-142v700h142v-415l324 415h165z" />
    <glyph glyph-name="L" unicode="L" horiz-adv-x="587" 
d="M209 118h330v-118h-471v700h141v-582z" />
    <glyph glyph-name="M" unicode="M" horiz-adv-x="927" 
d="M857 700v-700h-141v344l-240 -325h-25l-240 323v-342h-141v700h34l360 -482l359 482h34z" />
    <glyph glyph-name="N" unicode="N" horiz-adv-x="688" 
d="M626 700v-700h-14l-408 390v-390h-141v700h12l410 -389v389h141z" />
    <glyph glyph-name="O" unicode="O" 
d="M407 707q138 0 245.5 -102t107.5 -255t-107.5 -255t-245.5 -102q-135 0 -243.5 102.5t-108.5 254.5t108.5 254.5t243.5 102.5zM409 571q-81 0 -139.5 -62t-58.5 -159t58.5 -159t139.5 -62q85 0 140.5 61t55.5 160t-55.5 160t-140.5 61z" />
    <glyph glyph-name="P" unicode="P" horiz-adv-x="648" 
d="M70 700h270q122 0 190 -62t68 -160t-68 -159.5t-190 -61.5h-129v-257h-141v700zM211 381h125q58 0 89.5 25t31.5 72q0 97 -121 97h-125v-194z" />
    <glyph glyph-name="Q" unicode="Q" horiz-adv-x="790" 
d="M760 350q0 -145 -100 -248l99 -102h-161l-32 33q-75 -40 -159 -40q-135 0 -243.5 102.5t-108.5 254.5t108.5 254.5t243.5 102.5q138 0 245.5 -102t107.5 -255zM409 129q27 0 56 8l-115 117h161l49 -51q45 59 45 147q0 99 -55.5 160t-140.5 61q-81 0 -139.5 -62
t-58.5 -159t58.5 -159t139.5 -62z" />
    <glyph glyph-name="R" unicode="R" horiz-adv-x="664" 
d="M614 0h-162l-171 257h-70v-257h-141v700h270q122 0 190 -62t68 -160q0 -78 -44 -134t-126 -77zM211 575v-194h125q58 0 89.5 25t31.5 72q0 97 -121 97h-125z" />
    <glyph glyph-name="S" unicode="S" horiz-adv-x="593" 
d="M300 707q84 0 145 -40t90 -98l-123 -41q-29 57 -107 57q-39 0 -65.5 -17.5t-26.5 -46.5q0 -28 19 -46t71 -36l32 -10q115 -39 166.5 -96.5t51.5 -133.5q0 -51 -23.5 -92t-61 -65t-79.5 -36.5t-84 -12.5q-98 0 -168 44.5t-97 119.5l116 51q16 -40 55 -66.5t89 -26.5
q45 0 78 21t33 63q0 39 -24.5 60t-89.5 44l-31 12q-92 32 -143 80t-51 126q0 82 67.5 134t160.5 52z" />
    <glyph glyph-name="T" unicode="T" horiz-adv-x="656" 
d="M601 700v-125h-198v-575h-149v575h-199v125h546z" />
    <glyph glyph-name="U" unicode="U" horiz-adv-x="691" 
d="M628 700v-445q0 -118 -83.5 -190t-198.5 -72q-117 0 -200 72t-83 190v445h137v-446q0 -72 43.5 -107t102.5 -35q58 0 101.5 35t43.5 107v446h137z" />
    <glyph glyph-name="V" unicode="V" horiz-adv-x="749" 
d="M724 700l-339 -700h-21l-339 700h154l196 -431l195 431h154z" />
    <glyph glyph-name="W" unicode="W" horiz-adv-x="1077" 
d="M1037 700l-266 -700h-34l-198 434l-198 -434h-35l-266 700h150l147 -403l182 403h40l183 -403l145 403h150z" />
    <glyph glyph-name="X" unicode="X" horiz-adv-x="757" 
d="M704 0h-164l-163 237l-164 -237h-160l242 354l-238 346h164l156 -226l155 226h164l-238 -344z" />
    <glyph glyph-name="Y" unicode="Y" horiz-adv-x="738" 
d="M703 700l-266 -386v-314h-137v314l-265 386h156l178 -262l177 262h157z" />
    <glyph glyph-name="Z" unicode="Z" horiz-adv-x="693" 
d="M654 700l-368 -582h372v-118h-623l368 583h-342v117h593z" />
    <glyph glyph-name="bracketleft" unicode="[" horiz-adv-x="303" 
d="M258 745v-117h-76v-641h76v-117h-213v875h213z" />
    <glyph glyph-name="backslash" unicode="\" horiz-adv-x="570" 
d="M45 745h140l340 -875h-140z" />
    <glyph glyph-name="bracketright" unicode="]" horiz-adv-x="303" 
d="M45 745h213v-875h-213v117h76v641h-76v117z" />
    <glyph glyph-name="asciicircum" unicode="^" horiz-adv-x="498" 
d="M286 700l167 -225h-94l-109 102l-111 -102h-94l167 225h74z" />
    <glyph glyph-name="underscore" unicode="_" horiz-adv-x="590" 
d="M545 0v-118h-500v118h500z" />
    <glyph glyph-name="grave" unicode="`" horiz-adv-x="236" 
d="M0 767h192l44 -145h-123z" />
    <glyph glyph-name="a" unicode="a" horiz-adv-x="612" 
d="M419 520h137v-520h-137v57q-9 -22 -48.5 -43t-89.5 -21q-92 0 -167.5 70.5t-75.5 196.5q0 64 22.5 116.5t58.5 84t78 48.5t84 17q94 0 138 -56v50zM303 111q53 0 87.5 36t34.5 113t-34.5 112.5t-87.5 35.5q-51 0 -89.5 -40.5t-38.5 -107.5q0 -68 38.5 -108.5t89.5 -40.5z
" />
    <glyph glyph-name="b" unicode="b" horiz-adv-x="618" 
d="M335 526q42 0 84 -17t78 -48.5t58.5 -84t22.5 -116.5q0 -126 -75.5 -196.5t-167.5 -70.5q-50 0 -89.5 21t-48.5 43v-57h-137v700h137v-230q44 56 138 56zM313 111q51 0 89.5 40.5t38.5 108.5q0 67 -38.5 107.5t-89.5 40.5q-53 0 -87.5 -35.5t-34.5 -112.5t34.5 -113
t87.5 -36z" />
    <glyph glyph-name="c" unicode="c" horiz-adv-x="561" 
d="M310 526q59 0 119.5 -29t98.5 -83l-121 -52q-32 45 -97 45q-52 0 -90 -39.5t-38 -108.5t38 -108t90 -39q65 0 97 45l121 -52q-38 -54 -98.5 -83t-119.5 -29q-43 0 -88 16.5t-85 48t-66 84t-26 117.5t25.5 118t66 84.5t85.5 48t88 16.5z" />
    <glyph glyph-name="d" unicode="d" horiz-adv-x="609" 
d="M417 700h136v-700h-137v57q-9 -22 -48.5 -43t-88.5 -21q-42 0 -84 16.5t-78.5 48t-59 84.5t-22.5 118q0 64 22.5 116t58.5 84t78 49t85 17q93 0 137 -56v50h1v180zM301 111q52 0 87 36t35 113t-35 112.5t-87 35.5t-90.5 -40.5t-38.5 -107.5q0 -68 38.5 -108.5t90.5 -40.5
z" />
    <glyph glyph-name="e" unicode="e" horiz-adv-x="611" 
d="M307 526q44 0 88 -17t83 -48.5t63.5 -84.5t24.5 -117q0 -26 -3 -50h-377q11 -45 47.5 -71t76.5 -26q61 0 96 37l117 -61q-40 -47 -97 -71t-116 -24q-42 0 -87 16.5t-85.5 47.5t-66.5 84t-26 118q0 64 25 117t64.5 84.5t84 48.5t88.5 17zM307 407q-42 0 -75.5 -25
t-44.5 -71h241q-11 46 -45.5 71t-75.5 25z" />
    <glyph glyph-name="f" unicode="f" horiz-adv-x="418" 
d="M270 595q-48 0 -48 -62v-13h120v-117h-120v-403h-137v403h-65v117h65v16q0 54 18 90.5t48 53t56 22.5t55 6q68 0 131 -33l-44 -94q-41 14 -79 14z" />
    <glyph glyph-name="g" unicode="g" horiz-adv-x="592" 
d="M414 520h137v-520q0 -54 -25 -96t-64.5 -64.5t-80.5 -33.5t-79 -11q-15 0 -30 1.5t-26 3t-23.5 5t-19.5 5t-18.5 6.5t-14.5 6.5t-14 6.5l-10 5v119q78 -42 156 -42q52 0 82 26.5t30 62.5v57q-9 -22 -48.5 -43t-89.5 -21q-92 0 -167.5 70.5t-75.5 196.5q0 64 22.5 116.5
t58.5 84t78 48.5t84 17q94 0 138 -56v50zM298 111q53 0 87.5 36t34.5 113t-34.5 112.5t-87.5 35.5q-51 0 -89.5 -40.5t-38.5 -107.5q0 -68 38.5 -108.5t89.5 -40.5z" />
    <glyph glyph-name="h" unicode="h" horiz-adv-x="616" 
d="M343 525q98 0 159 -57t61 -174v-294h-137v285q0 123 -95 123q-40 0 -73 -26t-47 -51t-17 -41v-290h-137v700h137v-281q4 33 44 69.5t105 36.5z" />
    <glyph glyph-name="i" unicode="i" horiz-adv-x="260" 
d="M200 700v-122h-139v122h139zM200 520v-520h-139v520h139z" />
    <glyph glyph-name="j" unicode="j" horiz-adv-x="268" 
d="M198 700v-122h-137v122h137zM198 520v-571q0 -77 -41 -115.5t-113 -38.5q-43 0 -109 25v135q76 -21 90 -21q36 0 36 59v527h137z" />
    <glyph glyph-name="k" unicode="k" horiz-adv-x="604" 
d="M303 285l274 -285h-167l-185 203v2l-40 -42v-163h-137v700h137v-370l175 190h169z" />
    <glyph glyph-name="l" unicode="l" horiz-adv-x="236" 
d="M188 700v-700h-140v700h140z" />
    <glyph glyph-name="m" unicode="m" horiz-adv-x="993" 
d="M729 525q91 0 151.5 -59.5t60.5 -184.5v-281h-139v279q0 60 -29.5 95.5t-75.5 35.5q-51 0 -83 -32.5t-46 -83.5v-294h-138v279q0 61 -30 96t-79 35q-100 0 -126 -116v-294h-138v520h138v-102q5 34 46 70.5t108 36.5q139 0 194 -116q17 43 64 79.5t122 36.5z" />
    <glyph glyph-name="n" unicode="n" horiz-adv-x="616" 
d="M343 525q98 0 159 -57t61 -174v-294h-137v285q0 123 -95 123q-40 0 -73 -26t-47 -51t-17 -41v-290h-137v520h137v-101q4 33 44 69.5t105 36.5z" />
    <glyph glyph-name="o" unicode="o" horiz-adv-x="605" 
d="M302 526q42 0 87 -17t85.5 -48.5t66.5 -84.5t26 -117q0 -65 -26 -118t-66.5 -84t-85.5 -47.5t-87 -16.5t-86.5 16.5t-85 47.5t-66.5 84t-26 118q0 64 26 117t66.5 84.5t85 48.5t86.5 17zM302 407q-50 0 -88.5 -39.5t-38.5 -108.5q0 -68 38.5 -107.5t88.5 -39.5
q51 0 89.5 39.5t38.5 107.5q0 69 -38.5 108.5t-89.5 39.5z" />
    <glyph glyph-name="p" unicode="p" horiz-adv-x="618" 
d="M335 526q42 0 84 -17t78 -48.5t58.5 -84t22.5 -116.5q0 -126 -75.5 -196.5t-167.5 -70.5q-50 0 -89.5 21t-48.5 43v-247h-137v710h137v-50q44 56 138 56zM313 111q51 0 89.5 40.5t38.5 108.5q0 67 -38.5 107.5t-89.5 40.5q-53 0 -87.5 -35.5t-34.5 -112.5t34.5 -113
t87.5 -36z" />
    <glyph glyph-name="q" unicode="q" horiz-adv-x="621" 
d="M419 520h137v-710h-137v247q-9 -22 -48.5 -43t-89.5 -21q-92 0 -167.5 70.5t-75.5 196.5q0 64 22.5 116.5t58.5 84t78 48.5t84 17q94 0 138 -56v50zM303 111q53 0 87.5 36t34.5 113t-34.5 112.5t-87.5 35.5q-51 0 -89.5 -40.5t-38.5 -107.5q0 -68 38.5 -108.5t89.5 -40.5
z" />
    <glyph glyph-name="r" unicode="r" horiz-adv-x="447" 
d="M374 525q30 0 48 -3v-128q-17 2 -49 2q-69 1 -122 -46t-59 -122v-228h-137v520h137v-166q9 74 56.5 122.5t125.5 48.5z" />
    <glyph glyph-name="s" unicode="s" horiz-adv-x="485" 
d="M439 396l-129 -31q-19 48 -68 48q-18 0 -31 -11.5t-13 -27.5q0 -27 40 -42l68 -25q76 -28 101 -46q48 -37 48 -105q0 -76 -65 -119.5t-145 -43.5q-76 0 -137.5 37t-77.5 102l120 36q10 -30 36.5 -45t56.5 -15q27 0 47.5 13.5t20.5 34.5q0 26 -41 41l-64 25
q-79 28 -114.5 60.5t-35.5 88.5q0 70 54.5 112.5t130.5 42.5q141 0 198 -130z" />
    <glyph glyph-name="t" unicode="t" horiz-adv-x="378" 
d="M277 112q35 0 68 12v-112q-36 -18 -101 -18q-69 0 -107.5 35.5t-38.5 131.5v242h-70v117h70v90h137v-90h109v-117h-109v-241q0 -50 42 -50z" />
    <glyph glyph-name="u" unicode="u" horiz-adv-x="622" 
d="M425 520h137v-520h-137v107q-10 -37 -55.5 -75.5t-111.5 -38.5q-86 0 -142 54.5t-56 170.5v302h137v-294q0 -59 23.5 -87t59.5 -28q55 0 98.5 47.5t46.5 85.5v276z" />
    <glyph glyph-name="v" unicode="v" horiz-adv-x="603" 
d="M580 520l-268 -520h-21l-268 520h145l134 -296l134 296h144z" />
    <glyph glyph-name="w" unicode="w" 
d="M794 520l-215 -520h-22l-149 292l-151 -292h-22l-214 520h135l104 -262l135 262h25l135 -262l104 262h135z" />
    <glyph glyph-name="x" unicode="x" horiz-adv-x="623" 
d="M434 0l-123 173l-122 -173h-154l200 267l-181 253h150l107 -160l108 160h150l-181 -253l200 -267h-154z" />
    <glyph glyph-name="y" unicode="y" horiz-adv-x="608" 
d="M452 520h135l-288 -710h-134l83 205l-220 505h135l150 -345z" />
    <glyph glyph-name="z" unicode="z" horiz-adv-x="555" 
d="M517 520l-266 -402h243v-118h-459l263 403h-251v117h470z" />
    <glyph glyph-name="braceleft" unicode="{" horiz-adv-x="342" 
d="M297 745v-117h-35q-35 0 -35 -31v-223l-54 -68l54 -66v-222q0 -31 35 -31h35v-117h-98q-19 0 -36.5 4.5t-34.5 15.5t-27.5 34t-10.5 56v255l-45 71l45 73v256q0 61 33 85.5t76 24.5h98z" />
    <glyph glyph-name="bar" unicode="|" horiz-adv-x="268" 
d="M193 800v-990h-118v990h118z" />
    <glyph glyph-name="braceright" unicode="}" horiz-adv-x="342" 
d="M45 745h98q43 0 76 -24.5t33 -85.5v-256l45 -73l-45 -71v-255q0 -33 -10.5 -56t-27.5 -34t-34.5 -15.5t-36.5 -4.5h-98v117h35q35 0 35 31v222l55 66l-55 68v223q0 31 -35 31h-35v117z" />
    <glyph glyph-name="asciitilde" unicode="~" horiz-adv-x="526" 
d="M174 374q43 0 107.5 -35t93.5 -35q23 0 38.5 7t15.5 17h52q0 -56 -33 -93t-94 -37q-43 0 -109.5 40t-96.5 40q-23 0 -38 -9.5t-14 -23.5h-51q0 56 32.5 92.5t96.5 36.5z" />
    <glyph glyph-name="exclamdown" unicode="&#xa1;" horiz-adv-x="258" 
d="M231 370h-151v150h151v-150zM233 -180h-154v477h154v-477z" />
    <glyph glyph-name="cent" unicode="&#xa2;" horiz-adv-x="561" 
d="M355 467v-275q34 12 52 37l121 -51q-62 -85 -173 -106v-112h-110v117q-82 22 -140.5 86.5t-59.5 164.5q-1 102 58 167t142 86v119h110v-114q50 -9 96 -36t77 -69l-121 -51q-18 25 -52 37zM182 328q0 -86 63 -125v253q-63 -40 -63 -128z" />
    <glyph glyph-name="sterling" unicode="&#xa3;" horiz-adv-x="613" 
d="M568 480h-137v18q0 37 -23.5 64.5t-80.5 27.5q-53 0 -77 -29t-24 -68q0 -58 40 -119h123v-103h-78q1 -6 1 -20q0 -60 -45 -135h291v-118h-513v28q81 110 102 146.5t21 72.5q0 10 -2 26h-89v103h43q-36 63 -36 119q0 97 74.5 155.5t168.5 58.5q93 0 167 -58.5t74 -150.5
v-18z" />
    <glyph glyph-name="currency" unicode="&#xa4;" horiz-adv-x="532" 
d="M451 476q0 -49 -21 -96l47 -47l-84 -82l-40 40q-56 -39 -126 -39q-67 0 -123 37l-38 -38l-83 82l43 43q-23 46 -23 100q0 55 25 103l-45 45l83 83l41 -41q57 34 120 34q67 0 123 -36l43 43l84 -83l-49 -49q23 -46 23 -99zM227 362q59 0 87 38t28 76t-28.5 76t-86.5 38
t-85.5 -38t-27.5 -76q0 -39 27.5 -76.5t85.5 -37.5z" />
    <glyph glyph-name="yen" unicode="&#xa5;" horiz-adv-x="768" 
d="M703 700l-266 -386h100v-104h-100v-38h100v-104h-100v-68h-137v68h-89v104h89v38h-89v104h89l-265 386h156l178 -262l177 262h157z" />
    <glyph glyph-name="brokenbar" unicode="&#xa6;" horiz-adv-x="268" 
d="M193 800v-280h-118v280h118zM193 90v-280h-118v280h118z" />
    <glyph glyph-name="section" unicode="&#xa7;" horiz-adv-x="620" 
d="M299 467l70 -25q207 -64 207 -227q0 -50 -26 -94q26 -46 26 -103q0 -95 -81.5 -154t-180.5 -59q-103 0 -177.5 64t-93.5 165l143 45q5 -61 39.5 -97t88.5 -36q48 0 80 19.5t32 52.5q0 34 -21 53.5t-62 33.5l-87 29q-178 56 -178 202q0 43 28 99q-28 56 -28 104
q0 88 70.5 146.5t168.5 58.5q109 0 181.5 -65t85.5 -152l-150 -44q11 42 -23 81t-94 39q-41 0 -65 -18t-24 -46q0 -27 16.5 -43.5t54.5 -28.5zM299 267l70 -25l57 -20q-5 59 -83 84l-87 27q-2 1 -15 6t-20 6q7 -7 7 -9q0 -27 16.5 -43t54.5 -26z" />
    <glyph glyph-name="dieresis" unicode="&#xa8;" horiz-adv-x="404" 
d="M145 778v-145h-145v145h145zM404 778v-145h-145v145h145z" />
    <glyph glyph-name="copyright" unicode="&#xa9;" horiz-adv-x="835" 
d="M418 707q89 0 171.5 -44.5t136.5 -128t54 -184.5t-54 -184.5t-136.5 -128t-171.5 -44.5q-65 0 -129.5 26.5t-116.5 72.5t-84.5 114t-32.5 144t32.5 144t84.5 114t116.5 72.5t129.5 26.5zM419 576q-86 0 -152 -63.5t-66 -162.5t66 -162.5t152 -63.5q89 0 152 62.5
t63 163.5t-63 163.5t-152 62.5zM424 537q74 0 118 -55l-76 -87q-19 15 -41 15t-38.5 -18t-16.5 -42q0 -25 16.5 -43t38.5 -18q20 0 41 15l76 -85q-42 -56 -118 -56q-73 0 -128.5 53t-55.5 134q0 80 56 133.5t128 53.5z" />
    <glyph glyph-name="ordfeminine" unicode="&#xaa;" horiz-adv-x="428" 
d="M193 715q73 0 111.5 -40.5t37.5 -116.5v-96q0 -29 5.5 -45t22.5 -40h-90q-9 6 -18 38q-33 -40 -91 -40q-62 0 -98.5 27t-36.5 79q0 48 40 76.5t99 33.5l72 6q1 22 -15 32t-39 10q-41 0 -94 -45l-53 51q20 31 59.5 50.5t87.5 19.5zM247 502v19q-14 -3 -73 -8
q-25 -1 -36.5 -10.5t-11.5 -21.5t11 -21.5t34 -9.5q55 0 76 52z" />
    <glyph glyph-name="guillemotleft" unicode="&#xab;" horiz-adv-x="436" 
d="M30 435l152 81v-113l-92 -94l92 -95v-113l-152 81v253zM236 435l152 81v-113l-92 -94l92 -95v-113l-152 81v253z" />
    <glyph glyph-name="logicalnot" unicode="&#xac;" horiz-adv-x="519" 
d="M45 302h429v-183h-137v71h-292v112z" />
    <glyph glyph-name="softhyphen" unicode="&#xad;" horiz-adv-x="400" 
d="M355 331v-112h-310v112h310z" />
    <glyph glyph-name="registered" unicode="&#xae;" horiz-adv-x="835" 
d="M418 707q89 0 171.5 -44.5t136.5 -128t54 -184.5t-54 -184.5t-136.5 -128t-171.5 -44.5q-65 0 -129.5 26.5t-116.5 72.5t-84.5 114t-32.5 144t32.5 144t84.5 114t116.5 72.5t129.5 26.5zM419 124q89 0 152 62.5t63 163.5t-63 163.5t-152 62.5q-86 0 -152 -63.5
t-66 -162.5t66 -162.5t152 -63.5zM540 418q0 -38 -16.5 -60.5t-57.5 -43.5l83 -134h-105l-57 100v-100h-95v346h113q58 0 96.5 -31.5t38.5 -76.5zM384 399h28q25 0 25 20q0 9 -7.5 15.5t-17.5 6.5h-28v-42z" />
    <glyph glyph-name="macron" unicode="&#xaf;" horiz-adv-x="377" 
d="M377 700v-117h-377v117h377z" />
    <glyph glyph-name="degree" unicode="&#xb0;" horiz-adv-x="388" 
d="M194 719q61 0 105 -43t44 -103q0 -61 -44 -105t-105 -44t-105 44t-44 105q0 60 44 103t105 43zM194 621q-19 0 -31 -11t-15 -20.5t-3 -16.5q0 -9 3 -19.5t15 -21.5t31 -11t31 11t15 21.5t3 19.5q0 7 -3 16.5t-15 20.5t-31 11z" />
    <glyph glyph-name="plusminus" unicode="&#xb1;" horiz-adv-x="425" 
d="M262 346h118v-113h-118v-105h-112v105h-105v113h105v118h112v-118zM45 1v113h335v-113h-335z" />
    <glyph glyph-name="twosuperior" unicode="&#xb2;" horiz-adv-x="261" 
d="M129 704q34 0 59 -22.5t25 -52.5q0 -26 -14.5 -47t-53.5 -61l-47 -49h118v-32h-168v32l68 69q28 29 36.5 38.5t15.5 22.5t7 27q0 18 -14 31t-32 13q-19 0 -33 -13t-14 -37v-14h-37v14q0 35 24.5 58t59.5 23z" />
    <glyph glyph-name="threesuperior" unicode="&#xb3;" horiz-adv-x="273" 
d="M136 703q32 0 56 -20.5t24 -47.5q0 -32 -30 -53q42 -18 42 -66q0 -34 -27.5 -57t-64.5 -23q-41 0 -68 27.5t-23 63.5h38q-7 -23 10.5 -41t42.5 -18q22 0 38 13.5t16 34.5q0 28 -20 39t-54 5v32q63 3 63 43q0 15 -12.5 26t-30.5 11q-22 0 -35.5 -16t-10.5 -42h-38
q-4 38 21.5 63.5t62.5 25.5z" />
    <glyph glyph-name="acute" unicode="&#xb4;" horiz-adv-x="236" 
d="M236 767l-113 -145h-123l44 145h192z" />
    <glyph glyph-name="paragraph" unicode="&#xb6;" horiz-adv-x="898" 
d="M315 700h270v-700h-141v257h-129q-122 0 -190 61.5t-68 159.5t68 160t190 62zM828 700v-700h-137v700h137zM319 381h125v194h-125q-121 0 -121 -97q0 -47 31.5 -72t89.5 -25z" />
    <glyph glyph-name="periodcentered" unicode="&#xb7;" horiz-adv-x="258" 
d="M189 355v-149h-152v149h152z" />
    <glyph glyph-name="cedilla" unicode="&#xb8;" horiz-adv-x="229" 
d="M190 1l-51 -54q39 -9 66 -35.5t27 -63.5q0 -57 -59.5 -80t-155.5 -16l16 41q49 6 71 18.5t22 36.5q0 21 -18 31t-38 -5l-11 -12l-33 57l47 82h117z" />
    <glyph glyph-name="onesuperior" unicode="&#xb9;" horiz-adv-x="200" 
d="M125 701v-261h-37v221l-17 -11l-18 31l35 20h37z" />
    <glyph glyph-name="ordmasculine" unicode="&#xba;" horiz-adv-x="409" 
d="M204 705q59 0 108 -45t49 -118t-49 -118.5t-108 -45.5q-58 0 -107 45.5t-49 118.5t49 118t107 45zM204 616q-26 0 -48 -21.5t-22 -50.5q0 -30 22 -52.5t48 -22.5t48 22t22 53q0 28 -22 50t-48 22z" />
    <glyph glyph-name="guillemotright" unicode="&#xbb;" horiz-adv-x="436" 
d="M200 435v-253l-153 -81v113l93 95l-93 94v113zM406 435v-253l-153 -81v113l93 95l-93 94v113z" />
    <glyph glyph-name="onequarter" unicode="&#xbc;" horiz-adv-x="569" 
d="M100 701v-261h-37v221l-17 -11l-18 31l35 20h37zM503 700l-430 -700h-48l436 700h42zM517 261v-154h27v-31h-27v-76h-37v76h-132l132 185h37zM480 202l-65 -95h65v95z" />
    <glyph glyph-name="onehalf" unicode="&#xbd;" horiz-adv-x="544" 
d="M100 701v-261h-37v221l-17 -11l-18 31l35 20h37zM503 700l-430 -700h-48l436 700h42zM432 264q34 0 59 -22.5t25 -52.5q0 -26 -14.5 -47t-53.5 -61l-47 -49h118v-32h-168v32l68 69q28 29 36.5 38.5t15.5 22.5t7 27q0 18 -14 31t-32 13q-19 0 -33 -13t-14 -37v-14h-37v14
q0 35 24.5 58t59.5 23z" />
    <glyph glyph-name="threequarters" unicode="&#xbe;" horiz-adv-x="587" 
d="M116 703q32 0 56 -20.5t24 -47.5q0 -32 -30 -53q42 -18 42 -66q0 -34 -27.5 -57t-64.5 -23q-41 0 -68 27.5t-23 63.5h38q-7 -23 10.5 -41t42.5 -18q22 0 38 13.5t16 34.5q0 28 -20 39t-54 5v32q63 3 63 43q0 15 -12.5 26t-30.5 11q-22 0 -35.5 -16t-10.5 -42h-38
q-4 38 21.5 63.5t62.5 25.5zM531 700l-430 -700h-48l436 700h42zM535 261v-154h27v-31h-27v-76h-37v76h-132l132 185h37zM498 202l-65 -95h65v95z" />
    <glyph glyph-name="questiondown" unicode="&#xbf;" horiz-adv-x="550" 
d="M170 370v150h152v-150h-152zM271 -187q-93 0 -162 58.5t-69 152.5q0 45 14 77t33.5 50l39.5 35t34 43.5t14 64.5v7h142v-7q0 -46 -14.5 -80.5t-35 -55t-41 -38t-35 -41.5t-14.5 -55q0 -15 3.5 -29t12.5 -30t28.5 -25.5t48.5 -9.5q55 0 79 33.5t24 74.5h137
q0 -103 -72 -164t-167 -61z" />
    <glyph glyph-name="Agrave" unicode="&#xc0;" horiz-adv-x="747" 
d="M204 947h192l44 -145h-123zM386 700l326 -700h-154l-79 180h-210l-80 -180h-154l326 700h25zM374 436l-64 -137h128z" />
    <glyph glyph-name="Aacute" unicode="&#xc1;" horiz-adv-x="747" 
d="M539 947l-113 -145h-123l44 145h192zM386 700l326 -700h-154l-79 180h-210l-80 -180h-154l326 700h25zM374 436l-64 -137h128z" />
    <glyph glyph-name="Acircumflex" unicode="&#xc2;" horiz-adv-x="747" 
d="M500 948l81 -152h-113l-94 92l-95 -92h-113l81 152h253zM386 700l326 -700h-154l-79 180h-210l-80 -180h-154l326 700h25zM374 436l-64 -137h128z" />
    <glyph glyph-name="Atilde" unicode="&#xc3;" horiz-adv-x="747" 
d="M294 926q38 0 98 -35t83 -35q16 0 30 7t14 17h52q0 -55 -31 -92.5t-86 -37.5q-38 0 -99.5 40t-86.5 40q-16 0 -29.5 -9.5t-12.5 -23.5h-51q0 56 31 92.5t88 36.5zM386 700l326 -700h-154l-79 180h-210l-80 -180h-154l326 700h25zM374 436l-64 -137h128z" />
    <glyph glyph-name="Adieresis" unicode="&#xc4;" horiz-adv-x="747" 
d="M317 958v-145h-145v145h145zM576 958v-145h-145v145h145zM386 700l326 -700h-154l-79 180h-210l-80 -180h-154l326 700h25zM374 436l-64 -137h128z" />
    <glyph glyph-name="Aring" unicode="&#xc5;" horiz-adv-x="747" 
d="M375 989q44 0 76.5 -32.5t32.5 -77.5q0 -44 -32.5 -77t-76.5 -33q-47 0 -80 32.5t-33 77.5t33 77.5t80 32.5zM372 907q-11 0 -18.5 -7.5t-7.5 -19.5q0 -10 8 -18t18 -8q11 0 19.5 8t8.5 18q0 12 -8 19.5t-20 7.5zM386 700l326 -700h-154l-79 180h-210l-80 -180h-154
l326 700h25zM374 436l-64 -137h128z" />
    <glyph glyph-name="AE" unicode="&#xc6;" horiz-adv-x="1042" 
d="M652 123h337v-123h-482v188h-199l-128 -188h-152l479 700h472v-123h-327v-164h227v-123h-227v-167zM388 305h119v174z" />
    <glyph glyph-name="Ccedilla" unicode="&#xc7;" horiz-adv-x="667" 
d="M431 -5l-45 -48q39 -9 66 -35.5t27 -63.5q0 -57 -59.5 -80t-155.5 -16l16 41q49 6 71 18.5t22 36.5q0 21 -18 31t-38 -5l-11 -12l-33 57l47 82h2q-117 26 -199.5 121.5t-82.5 226.5q0 102 52 185.5t132.5 128t168.5 44.5q137 0 232 -87l-87 -104q-64 55 -142 55
q-83 0 -142 -64.5t-59 -156.5t59 -156.5t142 -64.5q75 0 145 58l86 -104q-85 -76 -196 -88z" />
    <glyph glyph-name="Egrave" unicode="&#xc8;" horiz-adv-x="584" 
d="M362 802h-123l-113 145h192zM193 123h338v-123h-483v700h473v-123h-328v-164h228v-123h-228v-167z" />
    <glyph glyph-name="Eacute" unicode="&#xc9;" horiz-adv-x="584" 
d="M462 947l-113 -145h-123l44 145h192zM193 123h338v-123h-483v700h473v-123h-328v-164h228v-123h-228v-167z" />
    <glyph glyph-name="Ecircumflex" unicode="&#xca;" horiz-adv-x="584" 
d="M296 888l-95 -92h-113l81 152h253l81 -152h-113zM193 123h338v-123h-483v700h473v-123h-328v-164h228v-123h-228v-167z" />
    <glyph glyph-name="Edieresis" unicode="&#xcb;" horiz-adv-x="584" 
d="M239 958v-145h-145v145h145zM498 958v-145h-145v145h145zM193 123h338v-123h-483v700h473v-123h-328v-164h228v-123h-228v-167z" />
    <glyph glyph-name="Igrave" unicode="&#xcc;" horiz-adv-x="265" 
d="M-40 947h192l44 -145h-123zM204 700v-700h-143v700h143z" />
    <glyph glyph-name="Iacute" unicode="&#xcd;" horiz-adv-x="265" 
d="M296 947l-113 -145h-123l44 145h192zM204 700v-700h-143v700h143z" />
    <glyph glyph-name="Icircumflex" unicode="&#xce;" horiz-adv-x="265" 
d="M256 948l81 -152h-113l-94 92l-95 -92h-113l81 152h253zM204 700v-700h-143v700h143z" />
    <glyph glyph-name="Idieresis" unicode="&#xcf;" horiz-adv-x="265" 
d="M73 958v-145h-145v145h145zM332 958v-145h-145v145h145zM204 700v-700h-143v700h143z" />
    <glyph glyph-name="Eth" unicode="&#xd0;" horiz-adv-x="814" 
d="M148 700h251q148 0 251 -101t103 -245q0 -149 -102.5 -251.5t-251.5 -102.5h-251v287h-73v112h73v301zM289 119h110q99 0 156 66t57 169q0 98 -57.5 162.5t-155.5 64.5h-110v-182h96v-112h-96v-168z" />
    <glyph glyph-name="Ntilde" unicode="&#xd1;" horiz-adv-x="688" 
d="M265 926q39 0 98 -35t83 -35q16 0 30 7t14 17h52q0 -55 -31 -92.5t-86 -37.5q-38 0 -99.5 40t-86.5 40q-16 0 -29.5 -9.5t-12.5 -23.5h-51q0 56 31 92.5t88 36.5zM626 700v-700h-14l-408 390v-390h-141v700h12l410 -389v389h141z" />
    <glyph glyph-name="Ograve" unicode="&#xd2;" 
d="M237 947h192l44 -145h-123zM407 707q138 0 245.5 -102t107.5 -255t-107.5 -255t-245.5 -102q-135 0 -243.5 102.5t-108.5 254.5t108.5 254.5t243.5 102.5zM409 571q-81 0 -139.5 -62t-58.5 -159t58.5 -159t139.5 -62q85 0 140.5 61t55.5 160t-55.5 160t-140.5 61z" />
    <glyph glyph-name="Oacute" unicode="&#xd3;" 
d="M573 947l-113 -145h-123l44 145h192zM407 707q138 0 245.5 -102t107.5 -255t-107.5 -255t-245.5 -102q-135 0 -243.5 102.5t-108.5 254.5t108.5 254.5t243.5 102.5zM409 571q-81 0 -139.5 -62t-58.5 -159t58.5 -159t139.5 -62q85 0 140.5 61t55.5 160t-55.5 160
t-140.5 61z" />
    <glyph glyph-name="Ocircumflex" unicode="&#xd4;" 
d="M533 948l81 -152h-113l-94 92l-95 -92h-113l81 152h253zM407 707q138 0 245.5 -102t107.5 -255t-107.5 -255t-245.5 -102q-135 0 -243.5 102.5t-108.5 254.5t108.5 254.5t243.5 102.5zM409 571q-81 0 -139.5 -62t-58.5 -159t58.5 -159t139.5 -62q85 0 140.5 61t55.5 160
t-55.5 160t-140.5 61z" />
    <glyph glyph-name="Otilde" unicode="&#xd5;" 
d="M328 926q38 0 98 -35t83 -35q16 0 30 7t14 17h52q0 -55 -31 -92.5t-86 -37.5q-38 0 -99.5 40t-86.5 40q-16 0 -29.5 -9.5t-12.5 -23.5h-51q0 56 31 92.5t88 36.5zM407 707q138 0 245.5 -102t107.5 -255t-107.5 -255t-245.5 -102q-135 0 -243.5 102.5t-108.5 254.5
t108.5 254.5t243.5 102.5zM409 571q-81 0 -139.5 -62t-58.5 -159t58.5 -159t139.5 -62q85 0 140.5 61t55.5 160t-55.5 160t-140.5 61z" />
    <glyph glyph-name="Odieresis" unicode="&#xd6;" 
d="M350 958v-145h-145v145h145zM609 958v-145h-145v145h145zM407 707q138 0 245.5 -102t107.5 -255t-107.5 -255t-245.5 -102q-135 0 -243.5 102.5t-108.5 254.5t108.5 254.5t243.5 102.5zM409 571q-81 0 -139.5 -62t-58.5 -159t58.5 -159t139.5 -62q85 0 140.5 61t55.5 160
t-55.5 160t-140.5 61z" />
    <glyph glyph-name="multiply" unicode="&#xd7;" horiz-adv-x="407" 
d="M362 366l-84 -84l84 -84l-80 -79l-83 84l-75 -75l-79 80l74 74l-74 74l79 80l75 -74l83 83z" />
    <glyph glyph-name="Oslash" unicode="&#xd8;" horiz-adv-x="794" 
d="M658 745l-49 -103q69 -49 110 -125t41 -167q0 -153 -107.5 -255t-245.5 -102q-48 0 -101 16l-28 -59h-153l60 126q-60 49 -95 120t-35 154q0 152 108.5 254.5t243.5 102.5q39 0 76 -9l22 47h153zM211 350q0 -78 40 -136l171 357h-13q-81 0 -139.5 -62t-58.5 -159z
M409 129q85 0 140.5 61t55.5 160q0 100 -58 163l-181 -379q23 -5 43 -5z" />
    <glyph glyph-name="Ugrave" unicode="&#xd9;" horiz-adv-x="691" 
d="M175 947h192l44 -145h-123zM628 700v-445q0 -118 -83.5 -190t-198.5 -72q-117 0 -200 72t-83 190v445h137v-446q0 -72 43.5 -107t102.5 -35q58 0 101.5 35t43.5 107v446h137z" />
    <glyph glyph-name="Uacute" unicode="&#xda;" horiz-adv-x="691" 
d="M511 947l-113 -145h-123l44 145h192zM628 700v-445q0 -118 -83.5 -190t-198.5 -72q-117 0 -200 72t-83 190v445h137v-446q0 -72 43.5 -107t102.5 -35q58 0 101.5 35t43.5 107v446h137z" />
    <glyph glyph-name="Ucircumflex" unicode="&#xdb;" horiz-adv-x="691" 
d="M471 948l81 -152h-113l-94 92l-95 -92h-113l81 152h253zM628 700v-445q0 -118 -83.5 -190t-198.5 -72q-117 0 -200 72t-83 190v445h137v-446q0 -72 43.5 -107t102.5 -35q58 0 101.5 35t43.5 107v446h137z" />
    <glyph glyph-name="Udieresis" unicode="&#xdc;" horiz-adv-x="691" 
d="M288 958v-145h-145v145h145zM547 958v-145h-145v145h145zM628 700v-445q0 -118 -83.5 -190t-198.5 -72q-117 0 -200 72t-83 190v445h137v-446q0 -72 43.5 -107t102.5 -35q58 0 101.5 35t43.5 107v446h137z" />
    <glyph glyph-name="Yacute" unicode="&#xdd;" horiz-adv-x="738" 
d="M534 947l-113 -145h-123l44 145h192zM703 700l-266 -386v-314h-137v314l-265 386h156l178 -262l177 262h157z" />
    <glyph glyph-name="Thorn" unicode="&#xde;" horiz-adv-x="695" 
d="M212 565h137q127 0 204 -59t77 -154q0 -101 -76 -157t-205 -56h-137v-139h-137v700h137v-135zM212 257h139h21h21t19 0.5t19.5 2.5t16.5 5t15.5 8t11.5 12t10 16.5t5.5 22.5t2.5 28q0 27 -9 46t-20 29t-33.5 14.5t-37.5 5.5t-42 1h-139v-191z" />
    <glyph glyph-name="germandbls" unicode="&#xdf;" horiz-adv-x="660" 
d="M317 700q103 0 181.5 -53t78.5 -139q0 -51 -35.5 -88t-73.5 -36q57 -4 103 -54t46 -113q0 -217 -281 -217h-56v118h58q142 0 142 99q0 100 -157 100h-43v117h43q65 0 91 17t26 57q0 36 -37 55.5t-86 19.5q-65 0 -91 -24t-26 -88v-471h-137v471q0 104 73.5 166.5
t180.5 62.5z" />
    <glyph glyph-name="agrave" unicode="&#xe0;" horiz-adv-x="612" 
d="M378 622h-123l-113 145h192zM419 520h137v-520h-137v57q-9 -22 -48.5 -43t-89.5 -21q-92 0 -167.5 70.5t-75.5 196.5q0 64 22.5 116.5t58.5 84t78 48.5t84 17q94 0 138 -56v50zM303 111q53 0 87.5 36t34.5 113t-34.5 112.5t-87.5 35.5q-51 0 -89.5 -40.5t-38.5 -107.5
q0 -68 38.5 -108.5t89.5 -40.5z" />
    <glyph glyph-name="aacute" unicode="&#xe1;" horiz-adv-x="612" 
d="M477 767l-113 -145h-123l44 145h192zM419 520h137v-520h-137v57q-9 -22 -48.5 -43t-89.5 -21q-92 0 -167.5 70.5t-75.5 196.5q0 64 22.5 116.5t58.5 84t78 48.5t84 17q94 0 138 -56v50zM303 111q53 0 87.5 36t34.5 113t-34.5 112.5t-87.5 35.5q-51 0 -89.5 -40.5
t-38.5 -107.5q0 -68 38.5 -108.5t89.5 -40.5z" />
    <glyph glyph-name="acircumflex" unicode="&#xe2;" horiz-adv-x="612" 
d="M312 708l-95 -92h-113l81 152h253l81 -152h-113zM419 520h137v-520h-137v57q-9 -22 -48.5 -43t-89.5 -21q-92 0 -167.5 70.5t-75.5 196.5q0 64 22.5 116.5t58.5 84t78 48.5t84 17q94 0 138 -56v50zM303 111q53 0 87.5 36t34.5 113t-34.5 112.5t-87.5 35.5
q-51 0 -89.5 -40.5t-38.5 -107.5q0 -68 38.5 -108.5t89.5 -40.5z" />
    <glyph glyph-name="atilde" unicode="&#xe3;" horiz-adv-x="612" 
d="M206 650q-16 0 -29.5 -9.5t-12.5 -23.5h-51q0 56 31 92.5t88 36.5q38 0 98 -35t83 -35q16 0 30 7t14 17h52q0 -55 -31 -92.5t-86 -37.5q-38 0 -99.5 40t-86.5 40zM419 520h137v-520h-137v57q-9 -22 -48.5 -43t-89.5 -21q-92 0 -167.5 70.5t-75.5 196.5q0 64 22.5 116.5
t58.5 84t78 48.5t84 17q94 0 138 -56v50zM303 111q53 0 87.5 36t34.5 113t-34.5 112.5t-87.5 35.5q-51 0 -89.5 -40.5t-38.5 -107.5q0 -68 38.5 -108.5t89.5 -40.5z" />
    <glyph glyph-name="adieresis" unicode="&#xe4;" horiz-adv-x="612" 
d="M255 778v-145h-145v145h145zM514 778v-145h-145v145h145zM419 520h137v-520h-137v57q-9 -22 -48.5 -43t-89.5 -21q-92 0 -167.5 70.5t-75.5 196.5q0 64 22.5 116.5t58.5 84t78 48.5t84 17q94 0 138 -56v50zM303 111q53 0 87.5 36t34.5 113t-34.5 112.5t-87.5 35.5
q-51 0 -89.5 -40.5t-38.5 -107.5q0 -68 38.5 -108.5t89.5 -40.5z" />
    <glyph glyph-name="aring" unicode="&#xe5;" horiz-adv-x="612" 
d="M313 589q-47 0 -80 32.5t-33 77.5t33 77.5t80 32.5q44 0 76.5 -32.5t32.5 -77.5q0 -44 -32.5 -77t-76.5 -33zM310 727q-11 0 -18.5 -7.5t-7.5 -19.5q0 -10 8 -18t18 -8q11 0 19.5 8t8.5 18q0 12 -8 19.5t-20 7.5zM419 520h137v-520h-137v57q-9 -22 -48.5 -43t-89.5 -21
q-92 0 -167.5 70.5t-75.5 196.5q0 64 22.5 116.5t58.5 84t78 48.5t84 17q94 0 138 -56v50zM303 111q53 0 87.5 36t34.5 113t-34.5 112.5t-87.5 35.5q-51 0 -89.5 -40.5t-38.5 -107.5q0 -68 38.5 -108.5t89.5 -40.5z" />
    <glyph glyph-name="ae" unicode="&#xe6;" horiz-adv-x="985" 
d="M955 259q0 -29 -4 -50h-377q11 -45 47.5 -71t76.5 -26q60 0 97 37l117 -61q-40 -47 -97.5 -71t-116.5 -24q-74 0 -142 43v-36h-137v57q-9 -22 -48.5 -43t-89.5 -21q-92 0 -167.5 70.5t-75.5 196.5q0 64 22.5 116.5t58.5 84t78 48.5t84 17q94 0 138 -56v50h137v-35
q68 41 140 41q59 0 116.5 -28t100 -91t42.5 -148zM303 111q53 0 87.5 36t34.5 113t-34.5 112.5t-87.5 35.5q-51 0 -89.5 -40.5t-38.5 -107.5q0 -68 38.5 -108.5t89.5 -40.5zM576 311h240q-11 46 -45.5 71t-74.5 25q-42 0 -75.5 -25t-44.5 -71z" />
    <glyph glyph-name="ccedilla" unicode="&#xe7;" horiz-adv-x="561" 
d="M310 112q65 0 97 45l121 -52q-60 -86 -172 -108l-48 -50q39 -9 66 -35.5t27 -63.5q0 -57 -59.5 -80t-155.5 -16l16 41q49 6 71 18.5t22 36.5q0 21 -18 31t-38 -5l-11 -12l-33 57l47 82h7q-83 21 -143 87.5t-61 170.5q0 65 25.5 118t66 84.5t85.5 48t88 16.5
q59 0 119.5 -29t98.5 -83l-121 -52q-32 45 -97 45q-52 0 -90 -39.5t-38 -108.5t38 -108t90 -39z" />
    <glyph glyph-name="egrave" unicode="&#xe8;" horiz-adv-x="611" 
d="M140 767h192l44 -145h-123zM307 526q44 0 88 -17t83 -48.5t63.5 -84.5t24.5 -117q0 -26 -3 -50h-377q11 -45 47.5 -71t76.5 -26q61 0 96 37l117 -61q-40 -47 -97 -71t-116 -24q-42 0 -87 16.5t-85.5 47.5t-66.5 84t-26 118q0 64 25 117t64.5 84.5t84 48.5t88.5 17z
M307 407q-42 0 -75.5 -25t-44.5 -71h241q-11 46 -45.5 71t-75.5 25z" />
    <glyph glyph-name="eacute" unicode="&#xe9;" horiz-adv-x="611" 
d="M475 767l-113 -145h-123l44 145h192zM307 526q44 0 88 -17t83 -48.5t63.5 -84.5t24.5 -117q0 -26 -3 -50h-377q11 -45 47.5 -71t76.5 -26q61 0 96 37l117 -61q-40 -47 -97 -71t-116 -24q-42 0 -87 16.5t-85.5 47.5t-66.5 84t-26 118q0 64 25 117t64.5 84.5t84 48.5
t88.5 17zM307 407q-42 0 -75.5 -25t-44.5 -71h241q-11 46 -45.5 71t-75.5 25z" />
    <glyph glyph-name="ecircumflex" unicode="&#xea;" horiz-adv-x="611" 
d="M436 768l81 -152h-113l-94 92l-95 -92h-113l81 152h253zM307 526q44 0 88 -17t83 -48.5t63.5 -84.5t24.5 -117q0 -26 -3 -50h-377q11 -45 47.5 -71t76.5 -26q61 0 96 37l117 -61q-40 -47 -97 -71t-116 -24q-42 0 -87 16.5t-85.5 47.5t-66.5 84t-26 118q0 64 25 117
t64.5 84.5t84 48.5t88.5 17zM307 407q-42 0 -75.5 -25t-44.5 -71h241q-11 46 -45.5 71t-75.5 25z" />
    <glyph glyph-name="edieresis" unicode="&#xeb;" horiz-adv-x="611" 
d="M253 778v-145h-145v145h145zM512 778v-145h-145v145h145zM307 526q44 0 88 -17t83 -48.5t63.5 -84.5t24.5 -117q0 -26 -3 -50h-377q11 -45 47.5 -71t76.5 -26q61 0 96 37l117 -61q-40 -47 -97 -71t-116 -24q-42 0 -87 16.5t-85.5 47.5t-66.5 84t-26 118q0 64 25 117
t64.5 84.5t84 48.5t88.5 17zM307 407q-42 0 -75.5 -25t-44.5 -71h241q-11 46 -45.5 71t-75.5 25z" />
    <glyph glyph-name="igrave" unicode="&#xec;" horiz-adv-x="287" 
d="M-26 767h192l44 -145h-123zM212 520v-520h-137v520h137z" />
    <glyph glyph-name="iacute" unicode="&#xed;" horiz-adv-x="287" 
d="M309 767l-113 -145h-123l44 145h192zM212 520v-520h-137v520h137z" />
    <glyph glyph-name="icircumflex" unicode="&#xee;" horiz-adv-x="287" 
d="M269 768l81 -152h-113l-94 92l-95 -92h-113l81 152h253zM212 520v-520h-137v520h137z" />
    <glyph glyph-name="idieresis" unicode="&#xef;" horiz-adv-x="287" 
d="M86 778v-145h-145v145h145zM345 778v-145h-145v145h145zM212 520v-520h-137v520h137z" />
    <glyph glyph-name="eth" unicode="&#xf0;" horiz-adv-x="608" 
d="M460 569l-4 -1q52 -78 72 -150.5t20 -165.5q0 -127 -75.5 -194.5t-186.5 -67.5q-103 0 -177 68t-74 194q0 130 68.5 199t182.5 69q46 0 62 -11l-29 40l-80 -11v117h2l-32 45h152l19 -25l80 11v-117zM286 108q44 0 84.5 37t40.5 107q0 78 -35.5 114t-89.5 36
q-48 0 -81 -36t-33 -114q0 -69 39 -106.5t75 -37.5z" />
    <glyph glyph-name="ntilde" unicode="&#xf1;" horiz-adv-x="616" 
d="M232 746q38 0 98 -35t83 -35q16 0 30 7t14 17h52q0 -55 -31 -92.5t-86 -37.5q-38 0 -99.5 40t-86.5 40q-16 0 -29.5 -9.5t-12.5 -23.5h-51q0 56 31 92.5t88 36.5zM343 525q98 0 159 -57t61 -174v-294h-137v285q0 123 -95 123q-40 0 -73 -26t-47 -51t-17 -41v-290h-137
v520h137v-101q4 33 44 69.5t105 36.5z" />
    <glyph glyph-name="ograve" unicode="&#xf2;" horiz-adv-x="605" 
d="M132 767h192l44 -145h-123zM302 526q42 0 87 -17t85.5 -48.5t66.5 -84.5t26 -117q0 -65 -26 -118t-66.5 -84t-85.5 -47.5t-87 -16.5t-86.5 16.5t-85 47.5t-66.5 84t-26 118q0 64 26 117t66.5 84.5t85 48.5t86.5 17zM302 407q-50 0 -88.5 -39.5t-38.5 -108.5
q0 -68 38.5 -107.5t88.5 -39.5q51 0 89.5 39.5t38.5 107.5q0 69 -38.5 108.5t-89.5 39.5z" />
    <glyph glyph-name="oacute" unicode="&#xf3;" horiz-adv-x="605" 
d="M468 767l-113 -145h-123l44 145h192zM302 526q42 0 87 -17t85.5 -48.5t66.5 -84.5t26 -117q0 -65 -26 -118t-66.5 -84t-85.5 -47.5t-87 -16.5t-86.5 16.5t-85 47.5t-66.5 84t-26 118q0 64 26 117t66.5 84.5t85 48.5t86.5 17zM302 407q-50 0 -88.5 -39.5t-38.5 -108.5
q0 -68 38.5 -107.5t88.5 -39.5q51 0 89.5 39.5t38.5 107.5q0 69 -38.5 108.5t-89.5 39.5z" />
    <glyph glyph-name="ocircumflex" unicode="&#xf4;" horiz-adv-x="605" 
d="M428 768l81 -152h-113l-94 92l-95 -92h-113l81 152h253zM302 526q42 0 87 -17t85.5 -48.5t66.5 -84.5t26 -117q0 -65 -26 -118t-66.5 -84t-85.5 -47.5t-87 -16.5t-86.5 16.5t-85 47.5t-66.5 84t-26 118q0 64 26 117t66.5 84.5t85 48.5t86.5 17zM302 407
q-50 0 -88.5 -39.5t-38.5 -108.5q0 -68 38.5 -107.5t88.5 -39.5q51 0 89.5 39.5t38.5 107.5q0 69 -38.5 108.5t-89.5 39.5z" />
    <glyph glyph-name="otilde" unicode="&#xf5;" horiz-adv-x="605" 
d="M223 746q39 0 98 -35t83 -35q16 0 30 7t14 17h52q0 -55 -31 -92.5t-86 -37.5q-38 0 -99.5 40t-86.5 40q-16 0 -29.5 -9.5t-12.5 -23.5h-51q0 56 31 92.5t88 36.5zM302 526q42 0 87 -17t85.5 -48.5t66.5 -84.5t26 -117q0 -65 -26 -118t-66.5 -84t-85.5 -47.5t-87 -16.5
t-86.5 16.5t-85 47.5t-66.5 84t-26 118q0 64 26 117t66.5 84.5t85 48.5t86.5 17zM302 407q-50 0 -88.5 -39.5t-38.5 -108.5q0 -68 38.5 -107.5t88.5 -39.5q51 0 89.5 39.5t38.5 107.5q0 69 -38.5 108.5t-89.5 39.5z" />
    <glyph glyph-name="odieresis" unicode="&#xf6;" horiz-adv-x="605" 
d="M245 778v-145h-145v145h145zM504 778v-145h-145v145h145zM302 526q42 0 87 -17t85.5 -48.5t66.5 -84.5t26 -117q0 -65 -26 -118t-66.5 -84t-85.5 -47.5t-87 -16.5t-86.5 16.5t-85 47.5t-66.5 84t-26 118q0 64 26 117t66.5 84.5t85 48.5t86.5 17zM302 407
q-50 0 -88.5 -39.5t-38.5 -108.5q0 -68 38.5 -107.5t88.5 -39.5q51 0 89.5 39.5t38.5 107.5q0 69 -38.5 108.5t-89.5 39.5z" />
    <glyph glyph-name="divide" unicode="&#xf7;" horiz-adv-x="425" 
d="M288 513v-150h-152v150h152zM380 331v-112h-335v112h335zM288 196v-149h-152v149h152z" />
    <glyph glyph-name="oslash" unicode="&#xf8;" horiz-adv-x="605" 
d="M528 578l-56 -116q95 -77 95 -203q0 -65 -26 -118t-66.5 -84t-85.5 -47.5t-87 -16.5q-25 0 -52 6l-23 -49h-139l49 102q-99 78 -99 207q0 64 26 117t66.5 84.5t85 48.5t86.5 17q26 0 58 -8l29 60h139zM175 259q0 -48 21 -84l111 232h-5q-50 0 -88.5 -39.5t-38.5 -108.5z
M413 337l-108 -225q50 1 87.5 40t37.5 107q0 46 -17 78z" />
    <glyph glyph-name="ugrave" unicode="&#xf9;" horiz-adv-x="622" 
d="M377 622h-123l-113 145h192zM425 520h137v-520h-137v107q-10 -37 -55.5 -75.5t-111.5 -38.5q-86 0 -142 54.5t-56 170.5v302h137v-294q0 -59 23.5 -87t59.5 -28q55 0 98.5 47.5t46.5 85.5v276z" />
    <glyph glyph-name="uacute" unicode="&#xfa;" horiz-adv-x="622" 
d="M476 767l-113 -145h-123l44 145h192zM425 520h137v-520h-137v107q-10 -37 -55.5 -75.5t-111.5 -38.5q-86 0 -142 54.5t-56 170.5v302h137v-294q0 -59 23.5 -87t59.5 -28q55 0 98.5 47.5t46.5 85.5v276z" />
    <glyph glyph-name="ucircumflex" unicode="&#xfb;" horiz-adv-x="622" 
d="M310 708l-95 -92h-113l81 152h253l81 -152h-113zM425 520h137v-520h-137v107q-10 -37 -55.5 -75.5t-111.5 -38.5q-86 0 -142 54.5t-56 170.5v302h137v-294q0 -59 23.5 -87t59.5 -28q55 0 98.5 47.5t46.5 85.5v276z" />
    <glyph glyph-name="udieresis" unicode="&#xfc;" horiz-adv-x="622" 
d="M253 778v-145h-145v145h145zM512 778v-145h-145v145h145zM425 520h137v-520h-137v107q-10 -37 -55.5 -75.5t-111.5 -38.5q-86 0 -142 54.5t-56 170.5v302h137v-294q0 -59 23.5 -87t59.5 -28q55 0 98.5 47.5t46.5 85.5v276z" />
    <glyph glyph-name="yacute" unicode="&#xfd;" horiz-adv-x="608" 
d="M478 767l-113 -145h-123l44 145h192zM452 520h135l-288 -710h-134l83 205l-220 505h135l150 -345z" />
    <glyph glyph-name="thorn" unicode="&#xfe;" horiz-adv-x="610" 
d="M341 526q43 0 85 -17t78 -49t58.5 -84t22.5 -116q0 -65 -22.5 -118t-59 -84.5t-78.5 -48t-84 -16.5h-3h-3q-43 0 -79 16t-52 36v-45h-7v-190h-137v710h7v180h136v-180h1v-42q43 48 131 48h3h3zM197 260q0 -76 34 -112t85 -37q51 2 88 42t37 107q0 66 -37 106t-88 42
q-51 -1 -85 -37t-34 -111z" />
    <glyph glyph-name="ydieresis" unicode="&#xff;" horiz-adv-x="608" 
d="M255 778v-145h-145v145h145zM514 778v-145h-145v145h145zM452 520h135l-288 -710h-134l83 205l-220 505h135l150 -345z" />
    <glyph glyph-name="Amacron" unicode="&#x100;" horiz-adv-x="747" 
d="M562 880v-117h-377v117h377zM386 700l326 -700h-154l-79 180h-210l-80 -180h-154l326 700h25zM374 436l-64 -137h128z" />
    <glyph glyph-name="amacron" unicode="&#x101;" horiz-adv-x="612" 
d="M500 700v-117h-377v117h377zM419 520h137v-520h-137v57q-9 -22 -48.5 -43t-89.5 -21q-92 0 -167.5 70.5t-75.5 196.5q0 64 22.5 116.5t58.5 84t78 48.5t84 17q94 0 138 -56v50zM303 111q53 0 87.5 36t34.5 113t-34.5 112.5t-87.5 35.5q-51 0 -89.5 -40.5t-38.5 -107.5
q0 -68 38.5 -108.5t89.5 -40.5z" />
    <glyph glyph-name="Abreve" unicode="&#x102;" horiz-adv-x="747" 
d="M455 947h106q-1 -75 -50 -135.5t-138 -60.5q-81 0 -134 62t-54 134h106q5 -29 27.5 -49.5t55.5 -20.5q32 0 54 20.5t27 49.5zM386 700l326 -700h-154l-79 180h-210l-80 -180h-154l326 700h25zM374 436l-64 -137h128z" />
    <glyph glyph-name="abreve" unicode="&#x103;" horiz-adv-x="612" 
d="M311 571q-81 0 -134 62t-54 134h106q5 -29 27.5 -49.5t55.5 -20.5q32 0 54 20.5t27 49.5h106q-1 -75 -50 -135.5t-138 -60.5zM419 520h137v-520h-137v57q-9 -22 -48.5 -43t-89.5 -21q-92 0 -167.5 70.5t-75.5 196.5q0 64 22.5 116.5t58.5 84t78 48.5t84 17q94 0 138 -56
v50zM303 111q53 0 87.5 36t34.5 113t-34.5 112.5t-87.5 35.5q-51 0 -89.5 -40.5t-38.5 -107.5q0 -68 38.5 -108.5t89.5 -40.5z" />
    <glyph glyph-name="Aogonek" unicode="&#x104;" horiz-adv-x="769" 
d="M554 -93q0 -31 28 -44t51 0l30 -61q-24 -14 -64.5 -15.5t-79 8t-67 35.5t-28.5 63q0 47 36.5 74t97.5 33l-79 180h-210l-80 -180h-154l326 700h25l326 -700h1q-96 -28 -127.5 -46.5t-31.5 -46.5zM310 299h128l-64 137z" />
    <glyph glyph-name="aogonek" unicode="&#x105;" horiz-adv-x="612" 
d="M556 520v-520q-81 -28 -111 -47.5t-30 -45.5q0 -31 28 -44t51 0l30 -61q-24 -14 -64.5 -15.5t-79 8t-67 35.5t-28.5 63q0 47 36.5 74t97.5 33v57q-9 -22 -48.5 -43t-89.5 -21q-92 0 -167.5 70.5t-75.5 196.5q0 64 22.5 116.5t58.5 84t78 48.5t84 17q94 0 138 -56v50h137z
M303 111q53 0 87.5 36t34.5 113t-34.5 112.5t-87.5 35.5q-51 0 -89.5 -40.5t-38.5 -107.5q0 -68 38.5 -108.5t89.5 -40.5z" />
    <glyph glyph-name="Cacute" unicode="&#x106;" horiz-adv-x="667" 
d="M540 947l-113 -145h-123l44 145h192zM393 707q137 0 232 -87l-87 -104q-64 55 -142 55q-83 0 -142 -64.5t-59 -156.5t59 -156.5t142 -64.5q75 0 145 58l86 -104q-98 -90 -234 -90q-88 0 -168.5 44.5t-132.5 127.5t-52 184q0 102 52 185.5t132.5 128t168.5 44.5z" />
    <glyph glyph-name="cacute" unicode="&#x107;" horiz-adv-x="561" 
d="M451 767l-113 -145h-123l44 145h192zM310 526q59 0 119.5 -29t98.5 -83l-121 -52q-32 45 -97 45q-52 0 -90 -39.5t-38 -108.5t38 -108t90 -39q65 0 97 45l121 -52q-38 -54 -98.5 -83t-119.5 -29q-43 0 -88 16.5t-85 48t-66 84t-26 117.5t25.5 118t66 84.5t85.5 48
t88 16.5z" />
    <glyph glyph-name="Cdotaccent" unicode="&#x10a;" horiz-adv-x="667" 
d="M444 939v-139h-139v139h139zM393 707q137 0 232 -87l-87 -104q-64 55 -142 55q-83 0 -142 -64.5t-59 -156.5t59 -156.5t142 -64.5q75 0 145 58l86 -104q-98 -90 -234 -90q-88 0 -168.5 44.5t-132.5 127.5t-52 184q0 102 52 185.5t132.5 128t168.5 44.5z" />
    <glyph glyph-name="cdotaccent" unicode="&#x10b;" horiz-adv-x="561" 
d="M355 759v-139h-139v139h139zM310 526q59 0 119.5 -29t98.5 -83l-121 -52q-32 45 -97 45q-52 0 -90 -39.5t-38 -108.5t38 -108t90 -39q65 0 97 45l121 -52q-38 -54 -98.5 -83t-119.5 -29q-43 0 -88 16.5t-85 48t-66 84t-26 117.5t25.5 118t66 84.5t85.5 48t88 16.5z" />
    <glyph glyph-name="Ccaron" unicode="&#x10c;" horiz-adv-x="667" 
d="M500 803h-253l-81 152h113l95 -92l94 92h113zM393 707q137 0 232 -87l-87 -104q-64 55 -142 55q-83 0 -142 -64.5t-59 -156.5t59 -156.5t142 -64.5q75 0 145 58l86 -104q-98 -90 -234 -90q-88 0 -168.5 44.5t-132.5 127.5t-52 184q0 102 52 185.5t132.5 128t168.5 44.5z
" />
    <glyph glyph-name="ccaron" unicode="&#x10d;" horiz-adv-x="561" 
d="M411 623h-253l-81 152h113l95 -92l94 92h113zM310 526q59 0 119.5 -29t98.5 -83l-121 -52q-32 45 -97 45q-52 0 -90 -39.5t-38 -108.5t38 -108t90 -39q65 0 97 45l121 -52q-38 -54 -98.5 -83t-119.5 -29q-43 0 -88 16.5t-85 48t-66 84t-26 117.5t25.5 118t66 84.5
t85.5 48t88 16.5z" />
    <glyph glyph-name="Dcaron" unicode="&#x10e;" horiz-adv-x="730" 
d="M490 803h-253l-81 152h113l95 -92l94 92h113zM75 700h251q148 0 251 -101t103 -245q0 -149 -102.5 -251.5t-251.5 -102.5h-251v700zM216 119h110q99 0 156 66t57 169q0 98 -57.5 162.5t-155.5 64.5h-110v-462z" />
    <glyph glyph-name="dcaron" unicode="&#x10f;" horiz-adv-x="919" 
d="M417 520v180h136v-700h-137v57q-9 -22 -48.5 -43t-88.5 -21q-42 0 -84 16.5t-78.5 48t-59 84.5t-22.5 118q0 64 22.5 116t58.5 84t78 49t85 17q93 0 137 -56v50h1zM671 700h193l-114 -145h-122zM301 111q52 0 87 36t35 113t-35 112.5t-87 35.5t-90.5 -40.5t-38.5 -107.5
q0 -68 38.5 -108.5t90.5 -40.5z" />
    <glyph glyph-name="Dcroat" unicode="&#x110;" horiz-adv-x="814" 
d="M148 700h251q148 0 251 -101t103 -245q0 -149 -102.5 -251.5t-251.5 -102.5h-251v287h-73v112h73v301zM289 119h110q99 0 156 66t57 169q0 98 -57.5 162.5t-155.5 64.5h-110v-182h96v-112h-96v-168z" />
    <glyph glyph-name="dcroat" unicode="&#x111;" horiz-adv-x="692" 
d="M634 636v-117h-81v-519h-137v57q-9 -22 -48.5 -43t-88.5 -21q-42 0 -84 16.5t-78.5 48t-59 84.5t-22.5 118q0 117 67.5 187t155.5 78v111h159v64h136v-64h81zM416 519h-78q47 -13 78 -49v49zM301 111q52 0 87 36t35 113t-35 112.5t-87 35.5t-90.5 -40.5t-38.5 -107.5
q0 -68 38.5 -108.5t90.5 -40.5z" />
    <glyph glyph-name="Emacron" unicode="&#x112;" horiz-adv-x="584" 
d="M485 880v-117h-377v117h377zM193 123h338v-123h-483v700h473v-123h-328v-164h228v-123h-228v-167z" />
    <glyph glyph-name="emacron" unicode="&#x113;" horiz-adv-x="611" 
d="M499 700v-117h-377v117h377zM307 526q44 0 88 -17t83 -48.5t63.5 -84.5t24.5 -117q0 -26 -3 -50h-377q11 -45 47.5 -71t76.5 -26q61 0 96 37l117 -61q-40 -47 -97 -71t-116 -24q-42 0 -87 16.5t-85.5 47.5t-66.5 84t-26 118q0 64 25 117t64.5 84.5t84 48.5t88.5 17z
M307 407q-42 0 -75.5 -25t-44.5 -71h241q-11 46 -45.5 71t-75.5 25z" />
    <glyph glyph-name="Edotaccent" unicode="&#x116;" horiz-adv-x="584" 
d="M366 939v-139h-139v139h139zM193 123h338v-123h-483v700h473v-123h-328v-164h228v-123h-228v-167z" />
    <glyph glyph-name="edotaccent" unicode="&#x117;" horiz-adv-x="611" 
d="M380 759v-139h-139v139h139zM307 526q44 0 88 -17t83 -48.5t63.5 -84.5t24.5 -117q0 -26 -3 -50h-377q11 -45 47.5 -71t76.5 -26q61 0 96 37l117 -61q-40 -47 -97 -71t-116 -24q-42 0 -87 16.5t-85.5 47.5t-66.5 84t-26 118q0 64 25 117t64.5 84.5t84 48.5t88.5 17z
M307 407q-42 0 -75.5 -25t-44.5 -71h241q-11 46 -45.5 71t-75.5 25z" />
    <glyph glyph-name="Eogonek" unicode="&#x118;" horiz-adv-x="584" 
d="M531 123v-123q-75 -28 -103.5 -48t-28.5 -45q0 -31 28 -44t51 0l30 -61q-24 -14 -64.5 -15.5t-79 8t-67 35.5t-28.5 63q0 47 36.5 74t97.5 33h-355v700h473v-123h-328v-164h228v-123h-228v-167h338z" />
    <glyph glyph-name="eogonek" unicode="&#x119;" horiz-adv-x="611" 
d="M566 259q0 -26 -3 -50h-377q11 -45 47.5 -71t76.5 -26q61 0 96 37l117 -61q-19 -22 -50 -45q-59 -46 -81 -74.5t-22 -57.5q0 -33 27 -47t53 -2l29 -60q-24 -14 -64 -15.5t-78.5 9t-67 39.5t-28.5 70q0 50 53 89q-42 3 -84.5 20.5t-80 49t-61 82.5t-23.5 113q0 64 25 117
t64.5 84.5t84 48.5t88.5 17t88 -17t83 -48.5t63.5 -84.5t24.5 -117zM187 311h241q-11 46 -45.5 71t-75.5 25q-42 0 -75.5 -25t-44.5 -71z" />
    <glyph glyph-name="Ecaron" unicode="&#x11a;" horiz-adv-x="584" 
d="M422 803h-253l-81 152h113l95 -92l94 92h113zM193 123h338v-123h-483v700h473v-123h-328v-164h228v-123h-228v-167z" />
    <glyph glyph-name="ecaron" unicode="&#x11b;" horiz-adv-x="611" 
d="M436 623h-253l-81 152h113l95 -92l94 92h113zM307 526q44 0 88 -17t83 -48.5t63.5 -84.5t24.5 -117q0 -26 -3 -50h-377q11 -45 47.5 -71t76.5 -26q61 0 96 37l117 -61q-40 -47 -97 -71t-116 -24q-42 0 -87 16.5t-85.5 47.5t-66.5 84t-26 118q0 64 25 117t64.5 84.5
t84 48.5t88.5 17zM307 407q-42 0 -75.5 -25t-44.5 -71h241q-11 46 -45.5 71t-75.5 25z" />
    <glyph glyph-name="Gbreve" unicode="&#x11e;" horiz-adv-x="761" 
d="M400 751q-81 0 -134 62t-54 134h106q5 -29 27.5 -49.5t55.5 -20.5q32 0 54 20.5t27 49.5h106q-1 -75 -50 -135.5t-138 -60.5zM477 355h244q10 -162 -84 -262t-236 -100q-145 0 -253.5 101.5t-108.5 255.5q0 153 108 255t250 102q149 0 237 -101l-87 -96q-54 61 -147 61
q-83 0 -144.5 -63.5t-61.5 -156.5t62.5 -157.5t147.5 -64.5q58 0 101 27t63 76h-91v123z" />
    <glyph glyph-name="gbreve" unicode="&#x11f;" horiz-adv-x="592" 
d="M287 571q-81 0 -134 62t-54 134h106q5 -29 27.5 -49.5t55.5 -20.5q32 0 54 20.5t27 49.5h106q-1 -75 -50 -135.5t-138 -60.5zM414 520h137v-520q0 -54 -25 -96t-64.5 -64.5t-80.5 -33.5t-79 -11q-15 0 -30 1.5t-26 3t-23.5 5t-19.5 5t-18.5 6.5t-14.5 6.5t-14 6.5l-10 5
v119q78 -42 156 -42q52 0 82 26.5t30 62.5v57q-9 -22 -48.5 -43t-89.5 -21q-92 0 -167.5 70.5t-75.5 196.5q0 64 22.5 116.5t58.5 84t78 48.5t84 17q94 0 138 -56v50zM298 111q53 0 87.5 36t34.5 113t-34.5 112.5t-87.5 35.5q-51 0 -89.5 -40.5t-38.5 -107.5
q0 -68 38.5 -108.5t89.5 -40.5z" />
    <glyph glyph-name="Gdotaccent" unicode="&#x120;" horiz-adv-x="761" 
d="M470 939v-139h-139v139h139zM477 355h244q10 -162 -84 -262t-236 -100q-145 0 -253.5 101.5t-108.5 255.5q0 153 108 255t250 102q149 0 237 -101l-87 -96q-54 61 -147 61q-83 0 -144.5 -63.5t-61.5 -156.5t62.5 -157.5t147.5 -64.5q58 0 101 27t63 76h-91v123z" />
    <glyph glyph-name="gdotaccent" unicode="&#x121;" horiz-adv-x="592" 
d="M357 759v-139h-139v139h139zM414 520h137v-520q0 -54 -25 -96t-64.5 -64.5t-80.5 -33.5t-79 -11q-15 0 -30 1.5t-26 3t-23.5 5t-19.5 5t-18.5 6.5t-14.5 6.5t-14 6.5l-10 5v119q78 -42 156 -42q52 0 82 26.5t30 62.5v57q-9 -22 -48.5 -43t-89.5 -21q-92 0 -167.5 70.5
t-75.5 196.5q0 64 22.5 116.5t58.5 84t78 48.5t84 17q94 0 138 -56v50zM298 111q53 0 87.5 36t34.5 113t-34.5 112.5t-87.5 35.5q-51 0 -89.5 -40.5t-38.5 -107.5q0 -68 38.5 -108.5t89.5 -40.5z" />
    <glyph glyph-name="Gcommaaccent" unicode="&#x122;" horiz-adv-x="761" 
d="M477 355h244q10 -162 -84 -262t-236 -100q-145 0 -253.5 101.5t-108.5 255.5q0 153 108 255t250 102q149 0 237 -101l-87 -96q-54 61 -147 61q-83 0 -144.5 -63.5t-61.5 -156.5t62.5 -157.5t147.5 -64.5q58 0 101 27t63 76h-91v123zM264 -215l19 155h184l-78 -155h-125z
" />
    <glyph glyph-name="gcommaaccent" unicode="&#x123;" horiz-adv-x="641" 
d="M397 733l-19 -155h-184l78 155h125zM414 520h137v-520q0 -54 -25 -96t-64.5 -64.5t-80.5 -33.5t-79 -11q-15 0 -30 1.5t-26 3t-23.5 5t-19.5 5t-18.5 6.5t-14.5 6.5t-14 6.5l-10 5v119q78 -42 156 -42q52 0 82 26.5t30 62.5v57q-9 -22 -48.5 -43t-89.5 -21
q-92 0 -167.5 70.5t-75.5 196.5q0 64 22.5 116.5t58.5 84t78 48.5t84 17q94 0 138 -56v50zM298 111q53 0 87.5 36t34.5 113t-34.5 112.5t-87.5 35.5q-51 0 -89.5 -40.5t-38.5 -107.5q0 -68 38.5 -108.5t89.5 -40.5z" />
    <glyph glyph-name="Hbar" unicode="&#x126;" horiz-adv-x="745" 
d="M522 700h141v-700h-141v289h-313v-289h-141v700h141v-122h313v122zM209 409h313v57h-313v-57z" />
    <glyph glyph-name="hbar" unicode="&#x127;" horiz-adv-x="672" 
d="M389 525q98 0 159 -57t61 -174v-294h-137v285q0 123 -95 123q-40 0 -73 -26t-47 -51t-17 -41v-290h-137v502h-58v112h58v86h137v-86h98v-97q24 8 51 8zM240 502v-83q3 19 19.5 43t44.5 40h-64z" />
    <glyph glyph-name="Imacron" unicode="&#x12a;" horiz-adv-x="265" 
d="M319 880v-117h-377v117h377zM204 700v-700h-143v700h143z" />
    <glyph glyph-name="imacron" unicode="&#x12b;" horiz-adv-x="287" 
d="M332 700v-117h-377v117h377zM212 520v-520h-137v520h137z" />
    <glyph glyph-name="Iogonek" unicode="&#x12e;" horiz-adv-x="266" 
d="M206 700v-700q-79 -28 -108.5 -47.5t-29.5 -45.5q0 -31 28 -44t51 0l29 -61q-24 -14 -64 -15.5t-78.5 8t-67 35.5t-28.5 63q0 46 35 73.5t89 33.5v700h144z" />
    <glyph glyph-name="iogonek" unicode="&#x12f;" horiz-adv-x="287" 
d="M74 759h139v-139h-139v139zM212 0h1q-75 -28 -103.5 -48t-28.5 -45q0 -31 28 -44t51 0l30 -61q-24 -14 -64.5 -15.5t-79 8t-67 35.5t-28.5 63q0 47 36.5 74t97.5 33h-10v520h137v-520z" />
    <glyph glyph-name="Idotaccent" unicode="&#x130;" horiz-adv-x="265" 
d="M200 939v-139h-139v139h139zM204 700v-700h-143v700h143z" />
    <glyph glyph-name="dotlessi" unicode="&#x131;" horiz-adv-x="287" 
d="M212 520v-520h-137v520h137z" />
    <glyph glyph-name="IJ" unicode="&#x132;" horiz-adv-x="819" 
d="M204 700v-700h-143v700h143zM754 700v-464q0 -66 -22 -115.5t-58.5 -76t-75.5 -39t-80 -12.5q-136 0 -208 84l91 91q38 -50 110 -50q106 0 106 122v460h137z" />
    <glyph glyph-name="ij" unicode="&#x133;" horiz-adv-x="529" 
d="M200 700v-122h-139v122h139zM458 700v-122h-137v122h137zM200 520v-520h-139v520h139zM458 520v-571q0 -77 -41 -115.5t-113 -38.5q-44 0 -108 25v135q74 -21 89 -21q36 0 36 59v527h137z" />
    <glyph glyph-name="Kcommaaccent" unicode="&#x136;" horiz-adv-x="769" 
d="M699 700l-277 -349l309 -351h-166l-223 254l-132 -165v-89h-142v700h142v-415l324 415h165zM264 -215l19 155h184l-78 -155h-125z" />
    <glyph glyph-name="kcommaaccent" unicode="&#x137;" horiz-adv-x="604" 
d="M303 285l274 -285h-167l-185 203v2l-40 -42v-163h-137v700h137v-370l175 190h169zM177 -215l19 155h184l-78 -155h-125z" />
    <glyph glyph-name="Lacute" unicode="&#x139;" horiz-adv-x="639" 
d="M318 945l-114 -145h-122l43 145h193zM209 118h330v-118h-471v700h141v-582z" />
    <glyph glyph-name="lacute" unicode="&#x13a;" horiz-adv-x="236" 
d="M284 947l-113 -145h-123l44 145h192zM188 700v-700h-140v700h140z" />
    <glyph glyph-name="Lcommaaccent" unicode="&#x13b;" horiz-adv-x="587" 
d="M209 118h330v-118h-471v700h141v-582zM191 -215l19 155h184l-78 -155h-125z" />
    <glyph glyph-name="lcommaaccent" unicode="&#x13c;" horiz-adv-x="236" 
d="M188 700v-700h-140v700h140zM-2 -215l19 155h184l-78 -155h-125z" />
    <glyph glyph-name="Lcaron" unicode="&#x13d;" horiz-adv-x="639" 
d="M209 118h330v-118h-471v700h141v-582zM496 700l-78 -155h-125l19 155h184z" />
    <glyph glyph-name="lcaron" unicode="&#x13e;" horiz-adv-x="469" 
d="M188 700v-700h-140v700h140zM256 545l19 155h184l-78 -155h-125z" />
    <glyph glyph-name="Ldot" unicode="&#x13f;" horiz-adv-x="587" 
d="M209 118h330v-118h-471v700h141v-582zM480 443v-150h-152v150h152z" />
    <glyph glyph-name="ldot" unicode="&#x140;" horiz-adv-x="468" 
d="M188 700v-700h-140v700h140zM413 441v-150h-152v150h152z" />
    <glyph glyph-name="Lslash" unicode="&#x141;" horiz-adv-x="695" 
d="M265 118h330v-118h-471v210l-69 -73v138l69 73v352h141v-204l75 79h1v-137l-76 -80v-240z" />
    <glyph glyph-name="lslash" unicode="&#x142;" horiz-adv-x="347" 
d="M304 564v-138l-74 -78v-348h-139v202l-48 -51v139l48 51v359h139v-213l73 77h1z" />
    <glyph glyph-name="Nacute" unicode="&#x143;" horiz-adv-x="688" 
d="M510 947l-113 -145h-123l44 145h192zM626 700v-700h-14l-408 390v-390h-141v700h12l410 -389v389h141z" />
    <glyph glyph-name="nacute" unicode="&#x144;" horiz-adv-x="616" 
d="M477 767l-113 -145h-123l44 145h192zM343 525q98 0 159 -57t61 -174v-294h-137v285q0 123 -95 123q-40 0 -73 -26t-47 -51t-17 -41v-290h-137v520h137v-101q4 33 44 69.5t105 36.5z" />
    <glyph glyph-name="Ncommaaccent" unicode="&#x145;" horiz-adv-x="688" 
d="M626 700v-700h-14l-408 390v-390h-141v700h12l410 -389v389h141zM224 -215l19 155h184l-78 -155h-125z" />
    <glyph glyph-name="ncommaaccent" unicode="&#x146;" horiz-adv-x="616" 
d="M343 525q98 0 159 -57t61 -174v-294h-137v285q0 123 -95 123q-40 0 -73 -26t-47 -51t-17 -41v-290h-137v520h137v-101q4 33 44 69.5t105 36.5zM191 -215l19 155h184l-78 -155h-125z" />
    <glyph glyph-name="Ncaron" unicode="&#x147;" horiz-adv-x="688" 
d="M471 803h-253l-81 152h113l95 -92l94 92h113zM626 700v-700h-14l-408 390v-390h-141v700h12l410 -389v389h141z" />
    <glyph glyph-name="ncaron" unicode="&#x148;" horiz-adv-x="616" 
d="M438 623h-253l-81 152h113l95 -92l94 92h113zM343 525q98 0 159 -57t61 -174v-294h-137v285q0 123 -95 123q-40 0 -73 -26t-47 -51t-17 -41v-290h-137v520h137v-101q4 33 44 69.5t105 36.5z" />
    <glyph glyph-name="Eng" unicode="&#x14a;" horiz-adv-x="684" 
d="M473 700h143v-662q0 -66 -22 -115.5t-58.5 -76t-75.5 -39t-80 -12.5q-136 0 -208 84l90 91q40 -50 111 -50q106 0 106 122v75l-268 253v-370h-143v700h12l393 -369v369z" />
    <glyph glyph-name="eng" unicode="&#x14b;" horiz-adv-x="616" 
d="M343 525q98 0 159 -57t61 -174v-345q0 -77 -41 -115.5t-114 -38.5q-44 0 -108 25v135q76 -21 90 -21q36 0 36 59v292q0 123 -95 123q-40 0 -73 -26t-47 -51t-17 -41v-290h-137v520h137v-101q4 33 44 69.5t105 36.5z" />
    <glyph glyph-name="Omacron" unicode="&#x14c;" 
d="M596 880v-117h-377v117h377zM407 707q138 0 245.5 -102t107.5 -255t-107.5 -255t-245.5 -102q-135 0 -243.5 102.5t-108.5 254.5t108.5 254.5t243.5 102.5zM409 571q-81 0 -139.5 -62t-58.5 -159t58.5 -159t139.5 -62q85 0 140.5 61t55.5 160t-55.5 160t-140.5 61z" />
    <glyph glyph-name="omacron" unicode="&#x14d;" horiz-adv-x="605" 
d="M491 700v-117h-377v117h377zM302 526q42 0 87 -17t85.5 -48.5t66.5 -84.5t26 -117q0 -65 -26 -118t-66.5 -84t-85.5 -47.5t-87 -16.5t-86.5 16.5t-85 47.5t-66.5 84t-26 118q0 64 26 117t66.5 84.5t85 48.5t86.5 17zM302 407q-50 0 -88.5 -39.5t-38.5 -108.5
q0 -68 38.5 -107.5t88.5 -39.5q51 0 89.5 39.5t38.5 107.5q0 69 -38.5 108.5t-89.5 39.5z" />
    <glyph glyph-name="Ohungarumlaut" unicode="&#x150;" 
d="M516 947l-113 -145h-123l44 145h192zM719 947l-113 -145h-123l44 145h192zM407 707q138 0 245.5 -102t107.5 -255t-107.5 -255t-245.5 -102q-135 0 -243.5 102.5t-108.5 254.5t108.5 254.5t243.5 102.5zM409 571q-81 0 -139.5 -62t-58.5 -159t58.5 -159t139.5 -62
q85 0 140.5 61t55.5 160t-55.5 160t-140.5 61z" />
    <glyph glyph-name="ohungarumlaut" unicode="&#x151;" horiz-adv-x="605" 
d="M411 767l-113 -145h-123l44 145h192zM614 767l-113 -145h-123l44 145h192zM302 526q42 0 87 -17t85.5 -48.5t66.5 -84.5t26 -117q0 -65 -26 -118t-66.5 -84t-85.5 -47.5t-87 -16.5t-86.5 16.5t-85 47.5t-66.5 84t-26 118q0 64 26 117t66.5 84.5t85 48.5t86.5 17zM302 407
q-50 0 -88.5 -39.5t-38.5 -108.5q0 -68 38.5 -107.5t88.5 -39.5q51 0 89.5 39.5t38.5 107.5q0 69 -38.5 108.5t-89.5 39.5z" />
    <glyph glyph-name="OE" unicode="&#x152;" horiz-adv-x="1128" 
d="M738 123h338v-123h-483v48q-88 -55 -186 -55q-135 0 -243.5 102.5t-108.5 254.5t108.5 254.5t243.5 102.5q98 0 186 -55v48h473v-123h-328v-103q11 -30 17 -61h211v-123h-211q-7 -39 -17 -64v-103zM409 129q65 0 114.5 37t69.5 102v164q-20 65 -69.5 102t-114.5 37
q-81 0 -139.5 -62t-58.5 -159t58.5 -159t139.5 -62z" />
    <glyph glyph-name="oe" unicode="&#x153;" horiz-adv-x="988" 
d="M958 259q0 -26 -3 -50h-377q11 -45 47.5 -71t76.5 -26q61 0 96 37l117 -61q-40 -47 -97 -71t-116 -24q-51 0 -105.5 23.5t-94.5 67.5q-40 -44 -94.5 -67.5t-105.5 -23.5q-42 0 -86.5 16.5t-85 47.5t-66.5 84t-26 118q0 64 26 117t66.5 84.5t85 48.5t86.5 17
q50 0 104.5 -23.5t94.5 -67.5q39 44 92.5 67.5t105.5 23.5q44 0 88 -17t83 -48.5t63.5 -84.5t24.5 -117zM302 112q51 0 89.5 39.5t38.5 107.5q0 69 -38.5 108.5t-89.5 39.5q-50 0 -88.5 -39.5t-38.5 -108.5q0 -68 38.5 -107.5t88.5 -39.5zM579 311h241q-11 46 -45.5 71
t-75.5 25q-42 0 -75.5 -25t-44.5 -71z" />
    <glyph glyph-name="Racute" unicode="&#x154;" horiz-adv-x="664" 
d="M459 947l-113 -145h-123l44 145h192zM614 0h-162l-171 257h-70v-257h-141v700h270q122 0 190 -62t68 -160q0 -78 -44 -134t-126 -77zM211 575v-194h125q58 0 89.5 25t31.5 72q0 97 -121 97h-125z" />
    <glyph glyph-name="racute" unicode="&#x155;" horiz-adv-x="447" 
d="M387 767l-113 -145h-123l44 145h192zM374 525q30 0 48 -3v-128q-17 2 -49 2q-69 1 -122 -46t-59 -122v-228h-137v520h137v-166q9 74 56.5 122.5t125.5 48.5z" />
    <glyph glyph-name="Rcommaaccent" unicode="&#x156;" horiz-adv-x="664" 
d="M428 267l186 -267h-162l-171 257h-70v-257h-141v700h270q122 0 190 -62t68 -160q0 -78 -44 -134t-126 -77zM211 575v-194h125q58 0 89.5 25t31.5 72q0 97 -121 97h-125zM194 -215l19 155h184l-78 -155h-125z" />
    <glyph glyph-name="rcommaaccent" unicode="&#x157;" horiz-adv-x="447" 
d="M374 525q30 0 48 -3v-128q-17 2 -49 2q-69 1 -122 -46t-59 -122v-228h-137v520h137v-166q9 74 56.5 122.5t125.5 48.5zM0 -215l19 155h184l-78 -155h-125z" />
    <glyph glyph-name="Rcaron" unicode="&#x158;" horiz-adv-x="664" 
d="M419 803h-253l-81 152h113l95 -92l94 92h113zM614 0h-162l-171 257h-70v-257h-141v700h270q122 0 190 -62t68 -160q0 -78 -44 -134t-126 -77zM211 575v-194h125q58 0 89.5 25t31.5 72q0 97 -121 97h-125z" />
    <glyph glyph-name="rcaron" unicode="&#x159;" horiz-adv-x="447" 
d="M347 623h-253l-81 152h113l95 -92l94 92h113zM192 520v-166q9 74 56.5 122.5t125.5 48.5q30 0 48 -3v-128q-17 2 -49 2q-69 1 -122 -46t-59 -122v-228h-137v520h137z" />
    <glyph glyph-name="Sacute" unicode="&#x15a;" horiz-adv-x="593" 
d="M470 947l-113 -145h-123l44 145h192zM300 707q84 0 145 -40t90 -98l-123 -41q-29 57 -107 57q-39 0 -65.5 -17.5t-26.5 -46.5q0 -28 19 -46t71 -36l32 -10q115 -39 166.5 -96.5t51.5 -133.5q0 -51 -23.5 -92t-61 -65t-79.5 -36.5t-84 -12.5q-98 0 -168 44.5t-97 119.5
l116 51q16 -40 55 -66.5t89 -26.5q45 0 78 21t33 63q0 39 -24.5 60t-89.5 44l-31 12q-92 32 -143 80t-51 126q0 82 67.5 134t160.5 52z" />
    <glyph glyph-name="sacute" unicode="&#x15b;" horiz-adv-x="485" 
d="M404 767l-113 -145h-123l44 145h192zM439 396l-129 -31q-19 48 -68 48q-18 0 -31 -11.5t-13 -27.5q0 -27 40 -42l68 -25q76 -28 101 -46q48 -37 48 -105q0 -76 -65 -119.5t-145 -43.5q-76 0 -137.5 37t-77.5 102l120 36q10 -30 36.5 -45t56.5 -15q27 0 47.5 13.5
t20.5 34.5q0 26 -41 41l-64 25q-79 28 -114.5 60.5t-35.5 88.5q0 70 54.5 112.5t130.5 42.5q141 0 198 -130z" />
    <glyph glyph-name="Scedilla" unicode="&#x15e;" horiz-adv-x="593" 
d="M553 199q0 -82 -55 -133t-134 -67l-49 -52q39 -9 66 -35.5t27 -63.5q0 -57 -59.5 -80t-155.5 -16l16 41q49 6 71 18.5t22 36.5q0 21 -18 31t-38 -5l-11 -12l-33 57l45 78q-76 13 -130 55t-77 105l116 51q16 -40 55 -66.5t89 -26.5q45 0 78 21t33 63q0 39 -24.5 60
t-89.5 44l-31 12q-92 32 -143 80t-51 126q0 82 67.5 134t160.5 52q84 0 145 -40t90 -98l-123 -41q-29 57 -107 57q-39 0 -65.5 -17.5t-26.5 -46.5q0 -28 19 -46t71 -36l32 -10q115 -39 166.5 -96.5t51.5 -133.5z" />
    <glyph glyph-name="scedilla" unicode="&#x15f;" horiz-adv-x="485" 
d="M455 156q0 -60 -41.5 -99.5t-103.5 -55.5h3l-51 -54q39 -9 66 -35.5t27 -63.5q0 -57 -59.5 -80t-155.5 -16l16 41q49 6 71 18.5t22 36.5q0 21 -18 31t-38 -5l-11 -12l-33 57l45 79q-61 11 -106 46t-58 88l120 36q10 -30 36.5 -45t56.5 -15q27 0 47.5 13.5t20.5 34.5
q0 26 -41 41l-64 25q-79 28 -114.5 60.5t-35.5 88.5q0 70 54.5 112.5t130.5 42.5q141 0 198 -130l-129 -31q-19 48 -68 48q-18 0 -31 -11.5t-13 -27.5q0 -27 40 -42l68 -25q76 -28 101 -46q48 -37 48 -105z" />
    <glyph glyph-name="Scaron" unicode="&#x160;" horiz-adv-x="593" 
d="M431 803h-253l-81 152h113l95 -92l94 92h113zM300 707q84 0 145 -40t90 -98l-123 -41q-29 57 -107 57q-39 0 -65.5 -17.5t-26.5 -46.5q0 -28 19 -46t71 -36l32 -10q115 -39 166.5 -96.5t51.5 -133.5q0 -51 -23.5 -92t-61 -65t-79.5 -36.5t-84 -12.5q-98 0 -168 44.5
t-97 119.5l116 51q16 -40 55 -66.5t89 -26.5q45 0 78 21t33 63q0 39 -24.5 60t-89.5 44l-31 12q-92 32 -143 80t-51 126q0 82 67.5 134t160.5 52z" />
    <glyph glyph-name="scaron" unicode="&#x161;" horiz-adv-x="485" 
d="M364 623h-253l-81 152h113l95 -92l94 92h113zM439 396l-129 -31q-19 48 -68 48q-18 0 -31 -11.5t-13 -27.5q0 -27 40 -42l68 -25q76 -28 101 -46q48 -37 48 -105q0 -76 -65 -119.5t-145 -43.5q-76 0 -137.5 37t-77.5 102l120 36q10 -30 36.5 -45t56.5 -15q27 0 47.5 13.5
t20.5 34.5q0 26 -41 41l-64 25q-79 28 -114.5 60.5t-35.5 88.5q0 70 54.5 112.5t130.5 42.5q141 0 198 -130z" />
    <glyph glyph-name="Tcedilla" unicode="&#x162;" horiz-adv-x="666" 
d="M601 575h-198v-575h5l-56 -55q37 -11 61.5 -37t24.5 -61q0 -58 -59 -80.5t-155 -15.5l16 41q49 6 71 18.5t22 36.5t-21 31.5t-46 -17.5l-33 57l26 82h-5v575h-199v125h546v-125z" />
    <glyph glyph-name="tcedilla" unicode="&#x163;" horiz-adv-x="378" 
d="M345 124v-112q-20 -10 -45 -14l-48 -51q39 -9 66 -35.5t27 -63.5q0 -57 -59.5 -80t-155.5 -16l16 41q49 6 71 18.5t22 36.5q0 21 -18 31t-38 -5l-11 -12l-33 57l47 82q-88 26 -88 160v242h-70v117h70v90h137v-90h109v-117h-109v-241q0 -50 42 -50q35 0 68 12z" />
    <glyph glyph-name="Tcaron" unicode="&#x164;" horiz-adv-x="656" 
d="M454 803h-253l-81 152h113l95 -92l94 92h113zM601 700v-125h-198v-575h-149v575h-199v125h546z" />
    <glyph glyph-name="tcaron" unicode="&#x165;" horiz-adv-x="536" 
d="M313 700h193l-114 -145h-122zM235 403v-241q0 -50 42 -50q35 0 68 12v-112q-36 -18 -101 -18q-69 0 -107.5 35.5t-38.5 131.5v242h-70v117h70v90h137v-90h109v-117h-109z" />
    <glyph glyph-name="Tbar" unicode="&#x166;" horiz-adv-x="666" 
d="M601 575h-198v-69h121v-118h-121v-388h-149v388h-107v118h107v69h-199v125h546v-125z" />
    <glyph glyph-name="tbar" unicode="&#x167;" horiz-adv-x="378" 
d="M277 112q35 0 68 12v-112q-36 -18 -101 -18q-69 0 -107.5 35.5t-38.5 131.5v58h-69v117h69v67h-70v117h70v90h137v-90h109v-117h-109v-67h109v-117h-109v-57q0 -50 42 -50z" />
    <glyph glyph-name="Umacron" unicode="&#x16a;" horiz-adv-x="691" 
d="M534 880v-117h-377v117h377zM628 700v-445q0 -118 -83.5 -190t-198.5 -72q-117 0 -200 72t-83 190v445h137v-446q0 -72 43.5 -107t102.5 -35q58 0 101.5 35t43.5 107v446h137z" />
    <glyph glyph-name="umacron" unicode="&#x16b;" horiz-adv-x="622" 
d="M499 700v-117h-377v117h377zM425 520h137v-520h-137v107q-10 -37 -55.5 -75.5t-111.5 -38.5q-86 0 -142 54.5t-56 170.5v302h137v-294q0 -59 23.5 -87t59.5 -28q55 0 98.5 47.5t46.5 85.5v276z" />
    <glyph glyph-name="Ubreve" unicode="&#x16c;" horiz-adv-x="691" 
d="M427 947h106q-1 -75 -50 -135.5t-138 -60.5q-81 0 -134 62t-54 134h106q5 -29 27.5 -49.5t55.5 -20.5q32 0 54 20.5t27 49.5zM628 700v-445q0 -118 -83.5 -190t-198.5 -72q-117 0 -200 72t-83 190v445h137v-446q0 -72 43.5 -107t102.5 -35q58 0 101.5 35t43.5 107v446
h137z" />
    <glyph glyph-name="ubreve" unicode="&#x16d;" horiz-adv-x="622" 
d="M310 571q-81 0 -134 62t-54 134h106q5 -29 27.5 -49.5t55.5 -20.5q32 0 54 20.5t27 49.5h106q-1 -75 -50 -135.5t-138 -60.5zM425 520h137v-520h-137v107q-10 -37 -55.5 -75.5t-111.5 -38.5q-86 0 -142 54.5t-56 170.5v302h137v-294q0 -59 23.5 -87t59.5 -28
q55 0 98.5 47.5t46.5 85.5v276z" />
    <glyph glyph-name="Uring" unicode="&#x16e;" horiz-adv-x="691" 
d="M346 989q44 0 76.5 -32.5t32.5 -77.5q0 -44 -32.5 -77t-76.5 -33q-47 0 -80 32.5t-33 77.5t33 77.5t80 32.5zM343 907q-11 0 -18.5 -7.5t-7.5 -19.5q0 -10 7.5 -18t18.5 -8t19.5 8t8.5 18q0 12 -8 19.5t-20 7.5zM628 700v-445q0 -118 -83.5 -190t-198.5 -72
q-117 0 -200 72t-83 190v445h137v-446q0 -72 43.5 -107t102.5 -35q58 0 101.5 35t43.5 107v446h137z" />
    <glyph glyph-name="uring" unicode="&#x16f;" horiz-adv-x="622" 
d="M312 589q-47 0 -80 32.5t-33 77.5t33 77.5t80 32.5q44 0 76.5 -32.5t32.5 -77.5q0 -44 -32.5 -77t-76.5 -33zM309 727q-11 0 -18.5 -7.5t-7.5 -19.5q0 -10 7.5 -18t18.5 -8t19.5 8t8.5 18q0 12 -8 19.5t-20 7.5zM425 520h137v-520h-137v107q-10 -37 -55.5 -75.5
t-111.5 -38.5q-86 0 -142 54.5t-56 170.5v302h137v-294q0 -59 23.5 -87t59.5 -28q55 0 98.5 47.5t46.5 85.5v276z" />
    <glyph glyph-name="Uhungarumlaut" unicode="&#x170;" horiz-adv-x="691" 
d="M454 947l-113 -145h-123l44 145h192zM657 947l-113 -145h-123l44 145h192zM628 700v-445q0 -118 -83.5 -190t-198.5 -72q-117 0 -200 72t-83 190v445h137v-446q0 -72 43.5 -107t102.5 -35q58 0 101.5 35t43.5 107v446h137z" />
    <glyph glyph-name="uhungarumlaut" unicode="&#x171;" horiz-adv-x="622" 
d="M419 767l-113 -145h-123l44 145h192zM509 622h-123l44 145h192zM425 244v276h137v-520h-137v107q-10 -37 -55.5 -75.5t-111.5 -38.5q-86 0 -142 54.5t-56 170.5v302h137v-294q0 -59 23.5 -87t59.5 -28q55 0 98.5 47.5t46.5 85.5z" />
    <glyph glyph-name="Uogonek" unicode="&#x172;" horiz-adv-x="691" 
d="M491 700h137v-445q0 -100 -61 -167.5t-154 -87.5q-75 -28 -103.5 -48t-28.5 -45q0 -31 28 -44t51 0l30 -61q-24 -14 -64.5 -15.5t-79 8t-67 35.5t-28.5 63q0 46 35 73t94 33q-95 20 -156 87.5t-61 168.5v445h137v-446q0 -72 43.5 -107t102.5 -35q58 0 101.5 35t43.5 107
v446z" />
    <glyph glyph-name="uogonek" unicode="&#x173;" horiz-adv-x="624" 
d="M562 520v-520q-75 -28 -103.5 -48t-28.5 -45q0 -31 28 -44t51 0l29 -61q-24 -14 -64 -15.5t-78.5 8t-67 35.5t-28.5 63q0 46 35 73.5t90 33.5v107q-10 -37 -55.5 -75.5t-111.5 -38.5q-86 0 -142 54.5t-56 170.5v302h137v-294q0 -59 23.5 -87t59.5 -28q55 0 98.5 47.5
t46.5 85.5v276h137z" />
    <glyph glyph-name="Wcircumflex" unicode="&#x174;" horiz-adv-x="1077" 
d="M665 948l81 -152h-113l-94 92l-95 -92h-113l81 152h253zM1037 700l-266 -700h-34l-198 434l-198 -434h-35l-266 700h150l147 -403l182 403h40l183 -403l145 403h150z" />
    <glyph glyph-name="wcircumflex" unicode="&#x175;" 
d="M533 768l81 -152h-113l-94 92l-95 -92h-113l81 152h253zM794 520l-215 -520h-22l-149 292l-151 -292h-22l-214 520h135l104 -262l135 262h25l135 -262l104 262h135z" />
    <glyph glyph-name="Ycircumflex" unicode="&#x176;" horiz-adv-x="738" 
d="M495 948l81 -152h-113l-94 92l-95 -92h-113l81 152h253zM703 700l-266 -386v-314h-137v314l-265 386h156l178 -262l177 262h157z" />
    <glyph glyph-name="ycircumflex" unicode="&#x177;" horiz-adv-x="608" 
d="M312 708l-95 -92h-113l81 152h253l81 -152h-113zM452 520h135l-288 -710h-134l83 205l-220 505h135l150 -345z" />
    <glyph glyph-name="Ydieresis" unicode="&#x178;" horiz-adv-x="738" 
d="M312 958v-145h-145v145h145zM571 958v-145h-145v145h145zM703 700l-266 -386v-314h-137v314l-265 386h156l178 -262l177 262h157z" />
    <glyph glyph-name="Zacute" unicode="&#x179;" horiz-adv-x="693" 
d="M512 947l-113 -145h-123l44 145h192zM654 700l-368 -582h372v-118h-623l368 583h-342v117h593z" />
    <glyph glyph-name="zacute" unicode="&#x17a;" horiz-adv-x="555" 
d="M449 767l-113 -145h-123l44 145h192zM517 520l-266 -402h243v-118h-459l263 403h-251v117h470z" />
    <glyph glyph-name="Zdotaccent" unicode="&#x17b;" horiz-adv-x="693" 
d="M416 939v-139h-139v139h139zM654 700l-368 -582h372v-118h-623l368 583h-342v117h593z" />
    <glyph glyph-name="zdotaccent" unicode="&#x17c;" horiz-adv-x="555" 
d="M353 759v-139h-139v139h139zM517 520l-266 -402h243v-118h-459l263 403h-251v117h470z" />
    <glyph glyph-name="Zcaron" unicode="&#x17d;" horiz-adv-x="693" 
d="M473 803h-253l-81 152h113l95 -92l94 92h113zM654 700l-368 -582h372v-118h-623l368 583h-342v117h593z" />
    <glyph glyph-name="zcaron" unicode="&#x17e;" horiz-adv-x="555" 
d="M409 623h-253l-81 152h113l95 -92l94 92h113zM517 520l-266 -402h243v-118h-459l263 403h-251v117h470z" />
    <glyph glyph-name="florin" unicode="&#x192;" horiz-adv-x="304" 
d="M289 697v-118q-38 0 -51 -14t-15 -45h66v-117h-66v-409q0 -184 -203 -184v117q24 0 38 5t20 19t7 25t1 36v11v380h-60v117h60q4 177 203 177z" />
    <glyph glyph-name="Acaron" unicode="&#x1cd;" horiz-adv-x="747" 
d="M500 803h-253l-81 152h113l95 -92l94 92h113zM386 700l326 -700h-154l-79 180h-210l-80 -180h-154l326 700h25zM374 436l-64 -137h128z" />
    <glyph glyph-name="acaron" unicode="&#x1ce;" horiz-adv-x="612" 
d="M438 623h-253l-81 152h113l95 -92l94 92h113zM419 520h137v-520h-137v57q-9 -22 -48.5 -43t-89.5 -21q-92 0 -167.5 70.5t-75.5 196.5q0 64 22.5 116.5t58.5 84t78 48.5t84 17q94 0 138 -56v50zM303 111q53 0 87.5 36t34.5 113t-34.5 112.5t-87.5 35.5q-51 0 -89.5 -40.5
t-38.5 -107.5q0 -68 38.5 -108.5t89.5 -40.5z" />
    <glyph glyph-name="Icaron" unicode="&#x1cf;" horiz-adv-x="265" 
d="M256 803h-253l-81 152h113l95 -92l94 92h113zM204 700v-700h-143v700h143z" />
    <glyph glyph-name="icaron" unicode="&#x1d0;" horiz-adv-x="287" 
d="M269 623h-253l-81 152h113l95 -92l94 92h113zM212 520v-520h-137v520h137z" />
    <glyph glyph-name="Ocaron" unicode="&#x1d1;" 
d="M533 803h-253l-81 152h113l95 -92l94 92h113zM407 707q138 0 245.5 -102t107.5 -255t-107.5 -255t-245.5 -102q-135 0 -243.5 102.5t-108.5 254.5t108.5 254.5t243.5 102.5zM409 571q-81 0 -139.5 -62t-58.5 -159t58.5 -159t139.5 -62q85 0 140.5 61t55.5 160t-55.5 160
t-140.5 61z" />
    <glyph glyph-name="ocaron" unicode="&#x1d2;" horiz-adv-x="605" 
d="M428 623h-253l-81 152h113l95 -92l94 92h113zM302 526q42 0 87 -17t85.5 -48.5t66.5 -84.5t26 -117q0 -65 -26 -118t-66.5 -84t-85.5 -47.5t-87 -16.5t-86.5 16.5t-85 47.5t-66.5 84t-26 118q0 64 26 117t66.5 84.5t85 48.5t86.5 17zM302 407q-50 0 -88.5 -39.5
t-38.5 -108.5q0 -68 38.5 -107.5t88.5 -39.5q51 0 89.5 39.5t38.5 107.5q0 69 -38.5 108.5t-89.5 39.5z" />
    <glyph glyph-name="Ucaron" unicode="&#x1d3;" horiz-adv-x="691" 
d="M471 803h-253l-81 152h113l95 -92l94 92h113zM628 700v-445q0 -118 -83.5 -190t-198.5 -72q-117 0 -200 72t-83 190v445h137v-446q0 -72 43.5 -107t102.5 -35q58 0 101.5 35t43.5 107v446h137z" />
    <glyph glyph-name="ucaron" unicode="&#x1d4;" horiz-adv-x="622" 
d="M436 623h-253l-81 152h113l95 -92l94 92h113zM425 520h137v-520h-137v107q-10 -37 -55.5 -75.5t-111.5 -38.5q-86 0 -142 54.5t-56 170.5v302h137v-294q0 -59 23.5 -87t59.5 -28q55 0 98.5 47.5t46.5 85.5v276z" />
    <glyph glyph-name="Oogonek" unicode="&#x1ea;" horiz-adv-x="790" 
d="M451 -4q-69 -26 -95 -45t-26 -44q0 -31 28 -44t51 0l29 -61q-24 -14 -64 -15.5t-78.5 8t-67 35.5t-28.5 63q0 47 36.5 74t97.5 33h7q-118 24 -202 121t-84 229q0 152 108.5 254.5t243.5 102.5q138 0 245.5 -102t107.5 -255q0 -140 -91.5 -238.5t-217.5 -115.5zM211 350
q0 -97 58.5 -159t139.5 -62q85 0 140.5 61t55.5 160t-55.5 160t-140.5 61q-81 0 -139.5 -62t-58.5 -159z" />
    <glyph glyph-name="oogonek" unicode="&#x1eb;" horiz-adv-x="602" 
d="M354 -1q-74 -27 -101.5 -47t-27.5 -45q0 -31 28 -44t51 0l30 -61q-24 -14 -64.5 -15.5t-79 8t-67 35.5t-28.5 63q0 47 36.5 74t97.5 33h17q-85 21 -146.5 87.5t-61.5 171.5q0 64 26 117t66.5 84.5t85 48.5t86.5 17t87 -17t85.5 -48.5t66.5 -84.5t26 -117
q0 -107 -63.5 -174t-149.5 -86zM175 259q0 -68 38.5 -107.5t88.5 -39.5q51 0 89.5 39.5t38.5 107.5q0 69 -38.5 108.5t-89.5 39.5q-50 0 -88.5 -39.5t-38.5 -108.5z" />
    <glyph glyph-name="Scommaaccent" unicode="&#x218;" horiz-adv-x="593" 
d="M300 707q84 0 145 -40t90 -98l-123 -41q-29 57 -107 57q-39 0 -65.5 -17.5t-26.5 -46.5q0 -28 19 -46t71 -36l32 -10q115 -39 166.5 -96.5t51.5 -133.5q0 -51 -23.5 -92t-61 -65t-79.5 -36.5t-84 -12.5q-98 0 -168 44.5t-97 119.5l116 51q16 -40 55 -66.5t89 -26.5
q45 0 78 21t33 63q0 39 -24.5 60t-89.5 44l-31 12q-92 32 -143 80t-51 126q0 82 67.5 134t160.5 52zM184 -215l19 155h184l-78 -155h-125z" />
    <glyph glyph-name="scommaaccent" unicode="&#x219;" horiz-adv-x="485" 
d="M439 396l-129 -31q-19 48 -68 48q-18 0 -31 -11.5t-13 -27.5q0 -27 40 -42l68 -25q76 -28 101 -46q48 -37 48 -105q0 -76 -65 -119.5t-145 -43.5q-76 0 -137.5 37t-77.5 102l120 36q10 -30 36.5 -45t56.5 -15q27 0 47.5 13.5t20.5 34.5q0 26 -41 41l-64 25
q-79 28 -114.5 60.5t-35.5 88.5q0 70 54.5 112.5t130.5 42.5q141 0 198 -130zM131 -215l19 155h184l-78 -155h-125z" />
    <glyph glyph-name="uni021A" unicode="&#x21a;" horiz-adv-x="656" 
d="M55 700h546v-125h-198v-575h-149v575h-199v125zM210 -216l19 155h184l-78 -155h-125z" />
    <glyph glyph-name="uni021B" unicode="&#x21b;" horiz-adv-x="378" 
d="M277 112q35 0 68 12v-112q-36 -18 -101 -18q-69 0 -107.5 35.5t-38.5 131.5v242h-70v117h70v90h137v-90h109v-117h-109v-241q0 -50 42 -50zM121 -215l19 155h184l-78 -155h-125z" />
    <glyph glyph-name="dotlessj" unicode="&#x237;" horiz-adv-x="273" 
d="M193 520v-571q0 -77 -41 -115.5t-114 -38.5q-44 0 -108 25v135q76 -21 89 -21q37 0 37 59v527h137z" />
    <glyph glyph-name="circumflex" unicode="&#x2c6;" horiz-adv-x="415" 
d="M334 768l81 -152h-113l-94 92l-95 -92h-113l81 152h253z" />
    <glyph glyph-name="caron" unicode="&#x2c7;" horiz-adv-x="415" 
d="M334 623h-253l-81 152h113l95 -92l94 92h113z" />
    <glyph glyph-name="breve" unicode="&#x2d8;" horiz-adv-x="376" 
d="M270 767h106q-1 -75 -50 -135.5t-138 -60.5q-81 0 -134 62t-54 134h106q5 -29 27.5 -49.5t55.5 -20.5q32 0 54 20.5t27 49.5z" />
    <glyph glyph-name="dotaccent" unicode="&#x2d9;" horiz-adv-x="147" 
d="M143 759v-139h-139v139h139z" />
    <glyph glyph-name="ring" unicode="&#x2da;" horiz-adv-x="222" 
d="M113 809q44 0 76.5 -32.5t32.5 -77.5q0 -44 -32.5 -77t-76.5 -33q-47 0 -80 32.5t-33 77.5t33 77.5t80 32.5zM110 727q-11 0 -18.5 -7.5t-7.5 -19.5q0 -10 8 -18t18 -8q11 0 19.5 8t8.5 18q0 12 -8 19.5t-20 7.5z" />
    <glyph glyph-name="ogonek" unicode="&#x2db;" horiz-adv-x="262" 
d="M134 0h128q-75 -28 -103.5 -48t-28.5 -45q0 -31 28 -44t51 0l30 -61q-24 -14 -64.5 -15.5t-79 8t-67 35.5t-28.5 63q0 47 36.5 74t97.5 33z" />
    <glyph glyph-name="tilde" unicode="&#x2dc;" horiz-adv-x="396" 
d="M119 746q39 0 98 -35t83 -35q16 0 30 7t14 17h52q0 -55 -31 -92.5t-86 -37.5q-38 0 -99.5 40t-86.5 40q-16 0 -29.5 -9.5t-12.5 -23.5h-51q0 56 31 92.5t88 36.5z" />
    <glyph glyph-name="hungarumlaut" unicode="&#x2dd;" horiz-adv-x="439" 
d="M236 767l-113 -145h-123l44 145h192zM439 767l-113 -145h-123l44 145h192z" />
    <glyph glyph-name="uni0326" unicode="&#x326;" horiz-adv-x="0" 
d="M-25 -215l19 155h184l-78 -155h-125z" />
    <glyph glyph-name="Delta" unicode="&#x394;" horiz-adv-x="733" 
d="M382 700l301 -700h-633l301 700h31zM367 480l-146 -362h291z" />
    <glyph glyph-name="Omega" unicode="&#x3a9;" horiz-adv-x="803" 
d="M749 356q0 -127 -87 -225h62v-131h-233v157l32 25q86 71 86 174q0 99 -60.5 157t-146.5 58q-87 0 -146.5 -57.5t-59.5 -157.5q0 -105 84 -174l32 -25v-157h-232v131h62q-87 98 -87 225q0 99 51.5 181t130.5 126t165 44t165 -44t130.5 -126t51.5 -181z" />
    <glyph glyph-name="mu" unicode="&#x3bc;" horiz-adv-x="625" 
d="M425 520h137v-520h-137v107q-10 -37 -55.5 -75.5t-111.5 -38.5q-34 0 -61 8v-191h-137v710h137v-294q0 -59 23.5 -87t59.5 -28q55 0 98.5 47.5t46.5 85.5v276z" />
    <glyph glyph-name="pi" unicode="&#x3c0;" horiz-adv-x="730" 
d="M617 111q33 0 68 19v-118q-36 -18 -111 -18q-50 0 -93 24.5t-43 75.5v309h-151v-403h-137v403h-100v117h624v-117h-99v-236q0 -33 9.5 -44.5t32.5 -11.5z" />
    <glyph glyph-name="uni0401" unicode="&#x401;" horiz-adv-x="584" 
d="M239 958v-145h-145v145h145zM498 958v-145h-145v145h145zM193 123h338v-123h-483v700h473v-123h-328v-164h228v-123h-228v-167z" />
    <glyph glyph-name="uni0403" unicode="&#x403;" horiz-adv-x="570" 
d="M465 947l-113 -145h-123l44 145h192zM527 700v-117h-327v-583h-137v700h464z" />
    <glyph glyph-name="uni0404" unicode="&#x404;" horiz-adv-x="648" 
d="M541 187l86 -104q-98 -90 -234 -90q-88 0 -168.5 44.5t-132.5 127.5t-52 184q0 102 52 185.5t132.5 128t168.5 44.5q137 0 232 -87l-87 -104q-64 55 -142 55q-68 0 -122 -45.5t-72 -116.5h116v-117h-116q17 -72 71 -117.5t123 -45.5q75 0 145 58z" />
    <glyph glyph-name="uni0406" unicode="&#x406;" horiz-adv-x="265" 
d="M204 700v-700h-143v700h143z" />
    <glyph glyph-name="uni0407" unicode="&#x407;" horiz-adv-x="265" 
d="M73 958v-145h-145v145h145zM332 958v-145h-145v145h145zM204 700v-700h-143v700h143z" />
    <glyph glyph-name="uni0410" unicode="&#x410;" horiz-adv-x="747" 
d="M386 700l326 -700h-154l-79 180h-210l-80 -180h-154l326 700h25zM374 436l-64 -137h128z" />
    <glyph glyph-name="uni0411" unicode="&#x411;" horiz-adv-x="623" 
d="M204 443h129q122 0 190 -61.5t68 -159.5t-68 -160t-190 -62h-270v700h421v-117h-280v-140zM204 125h124q122 0 122 97q0 47 -32 72t-90 25h-124v-194z" />
    <glyph glyph-name="uni0412" unicode="&#x412;" horiz-adv-x="644" 
d="M465 388q134 -61 134 -180q0 -95 -69 -151.5t-192 -56.5h-275v700h265q96 0 155.5 -47t59.5 -139q0 -89 -78 -126zM202 433h126q36 0 57 19t21 56q0 35 -21.5 54t-56.5 19h-126v-148zM202 119h152q53 0 80.5 28t27.5 69q0 40 -27.5 69.5t-80.5 29.5h-152v-196z" />
    <glyph glyph-name="uni0413" unicode="&#x413;" horiz-adv-x="570" 
d="M527 700v-117h-327v-583h-137v700h464z" />
    <glyph glyph-name="uni0414" unicode="&#x414;" horiz-adv-x="924" 
d="M761 118h118v-187h-137v69h-550v-69h-137v187h104q17 45 25.5 120t9.5 136.5t1 185.5v140h566v-582zM295 118h329v465h-292v-23q0 -124 -1.5 -185.5t-10 -136.5t-25.5 -120z" />
    <glyph glyph-name="uni0415" unicode="&#x415;" horiz-adv-x="584" 
d="M193 123h338v-123h-483v700h473v-123h-328v-164h228v-123h-228v-167z" />
    <glyph glyph-name="uni0416" unicode="&#x416;" horiz-adv-x="1262" 
d="M915 351l308 -351h-166l-223 254l-132 -165v-89h-143v89l-132 165l-223 -254h-166l309 351l-277 349h165l324 -415v415h143v-415l325 415h164z" />
    <glyph glyph-name="uni0417" unicode="&#x417;" horiz-adv-x="615" 
d="M304 707q93 0 162 -58.5t69 -137.5q0 -58 -36.5 -98t-82.5 -49q49 0 101.5 -44.5t52.5 -111.5q0 -97 -78 -157.5t-188 -60.5q-112 0 -188 61.5t-76 149.5l144 1q0 -36 23 -59t47.5 -29t49.5 -6q121 0 121 100q0 88 -151 93v111q30 2 50.5 5.5t33.5 11t20 12.5t10 19.5
t3.5 22t0.5 28.5q0 35 -31.5 57t-56.5 22q-98 0 -98 -91l-144 1q0 92 70.5 149.5t171.5 57.5z" />
    <glyph glyph-name="uni0418" unicode="&#x418;" horiz-adv-x="684" 
d="M58 700h141v-389l410 389h12v-700h-141v390l-408 -390h-14v700z" />
    <glyph glyph-name="uni0419" unicode="&#x419;" horiz-adv-x="684" 
d="M444 947h106q0 -47 -19 -90t-63.5 -74.5t-105.5 -31.5q-81 0 -134 62t-54 134h107q4 -29 26.5 -49.5t55.5 -20.5t55 20.5t26 49.5zM58 700h141v-389l410 389h12v-700h-141v390l-408 -390h-14v700z" />
    <glyph glyph-name="uni041A" unicode="&#x41a;" horiz-adv-x="769" 
d="M699 700l-277 -349l309 -351h-166l-223 254l-132 -165v-89h-142v700h142v-415l324 415h165z" />
    <glyph glyph-name="uni041B" unicode="&#x41b;" horiz-adv-x="745" 
d="M721 700v-700h-137v583h-321v-422q0 -97 -38.5 -132t-108.5 -35q-64 0 -100 18v118q33 -18 68 -18q20 0 31 16.5t11 33.5v538h595z" />
    <glyph glyph-name="uni041C" unicode="&#x41c;" horiz-adv-x="927" 
d="M857 700v-700h-141v344l-240 -325h-25l-240 323v-342h-141v700h34l360 -482l359 482h34z" />
    <glyph glyph-name="uni041D" unicode="&#x41d;" horiz-adv-x="731" 
d="M522 700h141v-700h-141v289h-313v-289h-141v700h141v-291h313v291z" />
    <glyph glyph-name="uni041E" unicode="&#x41e;" 
d="M407 707q138 0 245.5 -102t107.5 -255t-107.5 -255t-245.5 -102q-135 0 -243.5 102.5t-108.5 254.5t108.5 254.5t243.5 102.5zM409 571q-81 0 -139.5 -62t-58.5 -159t58.5 -159t139.5 -62q85 0 140.5 61t55.5 160t-55.5 160t-140.5 61z" />
    <glyph glyph-name="uni041F" unicode="&#x41f;" horiz-adv-x="731" 
d="M68 700h595v-700h-137v583h-321v-583h-137v700z" />
    <glyph glyph-name="uni0420" unicode="&#x420;" horiz-adv-x="648" 
d="M70 700h270q122 0 190 -62t68 -160t-68 -159.5t-190 -61.5h-129v-257h-141v700zM211 381h125q58 0 89.5 25t31.5 72q0 97 -121 97h-125v-194z" />
    <glyph glyph-name="uni0421" unicode="&#x421;" horiz-adv-x="667" 
d="M393 707q137 0 232 -87l-87 -104q-64 55 -142 55q-83 0 -142 -64.5t-59 -156.5t59 -156.5t142 -64.5q75 0 145 58l86 -104q-98 -90 -234 -90q-88 0 -168.5 44.5t-132.5 127.5t-52 184q0 102 52 185.5t132.5 128t168.5 44.5z" />
    <glyph glyph-name="uni0422" unicode="&#x422;" horiz-adv-x="656" 
d="M601 700v-125h-198v-575h-149v575h-199v125h546z" />
    <glyph glyph-name="uni0423" unicode="&#x423;" horiz-adv-x="728" 
d="M546 700h152l-382 -700h-150l127 235l-253 465h152l177 -326z" />
    <glyph glyph-name="uni0424" unicode="&#x424;" horiz-adv-x="926" 
d="M871 350q0 -118 -98.5 -197.5t-248.5 -86.5v-66h-137v66q-150 8 -247 87.5t-97 196.5t97 196.5t247 87.5v66h137v-66q150 -7 248.5 -86.5t98.5 -197.5zM524 517v-333q60 3 103.5 19.5t65.5 42t31.5 51t9.5 53.5t-9.5 54t-32 51.5t-65.5 42t-103 19.5zM180 350
q0 -61 47.5 -110t159.5 -56v333q-112 -7 -159.5 -56t-47.5 -111z" />
    <glyph glyph-name="uni0425" unicode="&#x425;" horiz-adv-x="757" 
d="M704 0h-164l-163 237l-164 -237h-160l242 354l-238 346h164l156 -226l155 226h164l-238 -344z" />
    <glyph glyph-name="uni0426" unicode="&#x426;" horiz-adv-x="841" 
d="M663 118h118v-187h-136v69h-577v700h137v-582h321v582h137v-582z" />
    <glyph glyph-name="uni0427" unicode="&#x427;" horiz-adv-x="657" 
d="M457 700h137v-700h-137v295q-12 -28 -57 -56.5t-108 -28.5q-106 0 -167.5 53t-61.5 167v270h137v-270q0 -55 34 -78.5t84 -23.5q82 0 139 97v275z" />
    <glyph glyph-name="uni0428" unicode="&#x428;" horiz-adv-x="1189" 
d="M984 700h137v-700h-1053v700h137v-582h321v582h137v-582h321v582z" />
    <glyph glyph-name="uni0429" unicode="&#x429;" horiz-adv-x="1300" 
d="M1121 118h119v-187h-136v69h-1036v700h137v-582h321v582h137v-582h321v582h137v-582z" />
    <glyph glyph-name="uni042A" unicode="&#x42a;" horiz-adv-x="811" 
d="M342 443h129q122 0 190 -61.5t68 -159.5t-68 -160t-190 -62h-270v583h-151v117h292v-257zM342 125h125q121 0 121 97q0 47 -31.5 72t-89.5 25h-125v-194z" />
    <glyph glyph-name="uni042B" unicode="&#x42b;" horiz-adv-x="930" 
d="M338 0h-270v700h141v-257h129q122 0 190 -61.5t68 -159.5t-68 -160t-190 -62zM855 700v-700h-143v700h143zM333 319h-124v-194h124q122 0 122 97q0 47 -32 72t-90 25z" />
    <glyph glyph-name="uni042C" unicode="&#x42c;" horiz-adv-x="658" 
d="M340 0h-270v700h141v-257h129q122 0 190 -61.5t68 -159.5t-68 -160t-190 -62zM336 319h-125v-194h125q121 0 121 97q0 47 -31.5 72t-89.5 25z" />
    <glyph glyph-name="uni042D" unicode="&#x42d;" horiz-adv-x="648" 
d="M255 707q88 0 168.5 -44.5t132.5 -128t52 -185.5q0 -101 -52 -184t-132.5 -127.5t-168.5 -44.5q-135 0 -233 90l85 104q70 -58 145 -58q69 0 123.5 45.5t71.5 117.5h-117v117h117q-18 71 -72.5 116.5t-122.5 45.5q-78 0 -142 -55l-87 104q95 87 232 87z" />
    <glyph glyph-name="uni042E" unicode="&#x42e;" horiz-adv-x="986" 
d="M603 707q138 0 245.5 -102t107.5 -255t-107.5 -255t-245.5 -102q-121 0 -223.5 84.5t-123.5 214.5h-52v-292h-143v700h143v-291h52q22 130 124.5 214t222.5 84zM605 129q85 0 140.5 61t55.5 160t-55.5 160t-140.5 61q-81 0 -139.5 -62t-58.5 -159t58.5 -159t139.5 -62z
" />
    <glyph glyph-name="uni042F" unicode="&#x42f;" horiz-adv-x="664" 
d="M324 700h270v-700h-141v257h-70l-171 -257h-162l186 267q-82 21 -126 77t-44 134q0 98 68 160t190 62zM453 381v194h-125q-121 0 -121 -97q0 -47 31.5 -72t89.5 -25h125z" />
    <glyph glyph-name="uni0430" unicode="&#x430;" horiz-adv-x="612" 
d="M419 520h137v-520h-137v57q-9 -22 -48.5 -43t-89.5 -21q-92 0 -167.5 70.5t-75.5 196.5q0 64 22.5 116.5t58.5 84t78 48.5t84 17q94 0 138 -56v50zM303 111q53 0 87.5 36t34.5 113t-34.5 112.5t-87.5 35.5q-51 0 -89.5 -40.5t-38.5 -107.5q0 -68 38.5 -108.5t89.5 -40.5z
" />
    <glyph glyph-name="uni0431" unicode="&#x431;" horiz-adv-x="598" 
d="M331 526q43 0 85 -17t78 -49t58.5 -84t22.5 -116q0 -65 -22.5 -118t-59 -84.5t-78.5 -48t-84 -16.5q-49 0 -88.5 21t-48.5 43v-57h-137v520h1q0 180 208 180h64q51 0 77 20h132q-35 -65 -80 -101t-110 -36h-83q-44 0 -57.5 -14t-13.5 -49v-49q43 55 136 55zM310 111
q51 0 89.5 40.5t38.5 108.5q0 67 -38.5 107.5t-89.5 40.5q-53 0 -88 -35.5t-35 -112.5t35 -113t88 -36z" />
    <glyph glyph-name="uni0432" unicode="&#x432;" horiz-adv-x="609" 
d="M460 289q106 -42 106 -133q0 -80 -63.5 -118t-168.5 -38h-271v520h271q85 0 138 -36.5t53 -102.5q0 -69 -65 -92zM200 410v-72h134q9 0 16.5 1t12.5 2.5t9.5 4t7 5t4.5 5.5t2.5 5t1 5t0.5 4.5v3.5v2v4q1 4 0.5 6t-2 6t-5 6.5t-9 5.5t-15.5 4.5t-23 1.5h-134zM200 110h134
q94 0 94 46q0 66 -94 66h-134v-112z" />
    <glyph glyph-name="uni0433" unicode="&#x433;" horiz-adv-x="554" 
d="M499 520v-117h-294v-403h-137v520h431z" />
    <glyph glyph-name="uni0434" unicode="&#x434;" horiz-adv-x="760" 
d="M662 118h45v-173h-137v55h-380v-55h-137v173h62q20 28 29.5 78.5t11 93t1.5 130.5v100h505v-402zM250 118h275v285h-231q0 -118 -7.5 -182t-36.5 -103z" />
    <glyph glyph-name="uni0435" unicode="&#x435;" horiz-adv-x="611" 
d="M307 526q44 0 88 -17t83 -48.5t63.5 -84.5t24.5 -117q0 -26 -3 -50h-377q11 -45 47.5 -71t76.5 -26q61 0 96 37l117 -61q-40 -47 -97 -71t-116 -24q-42 0 -87 16.5t-85.5 47.5t-66.5 84t-26 118q0 64 25 117t64.5 84.5t84 48.5t88.5 17zM307 407q-42 0 -75.5 -25
t-44.5 -71h241q-11 46 -45.5 71t-75.5 25z" />
    <glyph glyph-name="uni0436" unicode="&#x436;" horiz-adv-x="944" 
d="M906 0h-178l-162 172l-26 -27v-145h-137v145l-25 27l-163 -172h-177l253 262l-247 258h176l183 -190v190h137v-190l183 190h176l-247 -258z" />
    <glyph glyph-name="uni0437" unicode="&#x437;" horiz-adv-x="547" 
d="M276 525q83 0 146 -42.5t63 -101.5q0 -25 -9.5 -43.5t-28 -30t-33 -17.5t-35.5 -12q131 -12 131 -120q0 -74 -70 -119.5t-164 -45.5q-99 0 -163.5 50t-64.5 129h137q0 -25 28.5 -44t63.5 -19q96 0 96 54q0 60 -106 59v106q78 2 78 46q0 16 -21 26t-48 10
q-28 0 -48.5 -11.5t-20.5 -27.5h-137q0 65 59.5 109.5t146.5 44.5z" />
    <glyph glyph-name="uni0438" unicode="&#x438;" horiz-adv-x="641" 
d="M573 520v-520h-137v268l-349 -268h-19v520h137v-268l349 268h19z" />
    <glyph glyph-name="uni0439" unicode="&#x439;" horiz-adv-x="641" 
d="M403 767h106q-1 -75 -50 -135.5t-138 -60.5q-81 0 -134 62t-54 134h106q5 -29 27.5 -49.5t55.5 -20.5q32 0 54 20.5t27 49.5zM573 520v-520h-137v268l-349 -268h-19v520h137v-268l349 268h19z" />
    <glyph glyph-name="uni043A" unicode="&#x43a;" horiz-adv-x="605" 
d="M570 0h-177l-163 172l-25 -27v-145h-137v520h137v-190l183 190h176l-247 -258z" />
    <glyph glyph-name="uni043B" unicode="&#x43b;" horiz-adv-x="717" 
d="M126 520h523v-520h-137v403h-249v-242q0 -97 -38.5 -132t-108.5 -35q-64 0 -100 18v118q33 -18 68 -18q20 0 31 16.5t11 33.5v358z" />
    <glyph glyph-name="uni043C" unicode="&#x43c;" horiz-adv-x="780" 
d="M710 520v-520h-137v196l-166 -196h-34l-165 196v-196h-137v520h25l294 -331l294 331h26z" />
    <glyph glyph-name="uni043D" unicode="&#x43d;" horiz-adv-x="617" 
d="M412 520h137v-520h-137v202h-207v-202h-137v520h137v-201h207v201z" />
    <glyph glyph-name="uni043E" unicode="&#x43e;" horiz-adv-x="605" 
d="M302 526q42 0 87 -17t85.5 -48.5t66.5 -84.5t26 -117q0 -65 -26 -118t-66.5 -84t-85.5 -47.5t-87 -16.5t-86.5 16.5t-85 47.5t-66.5 84t-26 118q0 64 26 117t66.5 84.5t85 48.5t86.5 17zM302 407q-50 0 -88.5 -39.5t-38.5 -108.5q0 -68 38.5 -107.5t88.5 -39.5
q51 0 89.5 39.5t38.5 107.5q0 69 -38.5 108.5t-89.5 39.5z" />
    <glyph glyph-name="uni043F" unicode="&#x43f;" horiz-adv-x="641" 
d="M68 520h505v-520h-137v403h-231v-403h-137v520z" />
    <glyph glyph-name="uni0440" unicode="&#x440;" horiz-adv-x="618" 
d="M335 526q42 0 84 -17t78 -48.5t58.5 -84t22.5 -116.5q0 -126 -75.5 -196.5t-167.5 -70.5q-50 0 -89.5 21t-48.5 43v-247h-137v710h137v-50q44 56 138 56zM313 111q51 0 89.5 40.5t38.5 108.5q0 67 -38.5 107.5t-89.5 40.5q-53 0 -87.5 -35.5t-34.5 -112.5t34.5 -113
t87.5 -36z" />
    <glyph glyph-name="uni0441" unicode="&#x441;" horiz-adv-x="561" 
d="M310 526q59 0 119.5 -29t98.5 -83l-121 -52q-32 45 -97 45q-52 0 -90 -39.5t-38 -108.5t38 -108t90 -39q65 0 97 45l121 -52q-38 -54 -98.5 -83t-119.5 -29q-43 0 -88 16.5t-85 48t-66 84t-26 117.5t25.5 118t66 84.5t85.5 48t88 16.5z" />
    <glyph glyph-name="uni0442" unicode="&#x442;" horiz-adv-x="537" 
d="M477 520v-117h-140v-403h-137v403h-140v117h417z" />
    <glyph glyph-name="uni0443" unicode="&#x443;" horiz-adv-x="595" 
d="M439 520h136l-288 -710h-135l83 205l-220 505h135l150 -345z" />
    <glyph glyph-name="uni0444" unicode="&#x444;" horiz-adv-x="962" 
d="M691 526q42 0 84 -17t78.5 -48.5t59 -84t22.5 -116.5q0 -65 -22.5 -118t-59 -84.5t-78.5 -48t-84 -16.5q-50 0 -90 21t-48 43v-247h-137v240q-44 -56 -137 -56q-43 0 -85 17t-78 49t-58.5 84t-22.5 116q0 65 22.5 118t59 84.5t78.5 48t84 16.5q49 0 89 -20.5t48 -42.5
v246h137v-240q47 56 138 56zM301 112q40 0 71 22t44 68v117q-13 47 -44 69t-71 22q-52 0 -90.5 -41t-38.5 -109q0 -67 38.5 -107.5t90.5 -40.5zM669 111q51 0 90 40.5t39 108.5q0 67 -39 107.5t-90 40.5q-93 0 -116 -93v-110q12 -48 43.5 -71t72.5 -23z" />
    <glyph glyph-name="uni0445" unicode="&#x445;" horiz-adv-x="623" 
d="M434 0l-123 173l-122 -173h-154l200 267l-181 253h150l107 -160l108 160h150l-181 -253l200 -267h-154z" />
    <glyph glyph-name="uni0446" unicode="&#x446;" horiz-adv-x="684" 
d="M573 118h51v-187h-136v69h-420v520h137v-402h231v402h137v-402z" />
    <glyph glyph-name="uni0447" unicode="&#x447;" horiz-adv-x="631" 
d="M429 520h137v-520h-137v229q-32 -51 -64 -71q-36 -23 -79 -23q-92 0 -157.5 61.5t-65.5 163.5v160h137v-161q0 -104 87 -104q97 0 142 116v149z" />
    <glyph glyph-name="uni0448" unicode="&#x448;" horiz-adv-x="861" 
d="M793 520v-520h-725v520h137v-402h157v402h137v-402h157v402h137z" />
    <glyph glyph-name="uni0449" unicode="&#x449;" horiz-adv-x="902" 
d="M793 118h49v-187h-136v69h-638v520h137v-402h157v402h137v-402h157v402h137v-402z" />
    <glyph glyph-name="uni044A" unicode="&#x44a;" horiz-adv-x="729" 
d="M284 306h166q91 0 147.5 -43t56.5 -114q0 -68 -56.5 -108.5t-147.5 -40.5h-303v403h-87v117h224v-214zM284 118h165q32 0 47.5 5t18 10t2.5 16t-2.5 18t-18.5 14.5t-47 7.5h-165v-71z" />
    <glyph glyph-name="uni044B" unicode="&#x44b;" horiz-adv-x="838" 
d="M200 306h166q91 0 147.5 -43t56.5 -114q0 -68 -56.5 -108.5t-147.5 -40.5h-303v520h137v-214zM634 520h137v-520h-137v520zM200 118h165q32 0 47.5 5t18 10t2.5 16t-2.5 18t-18.5 14.5t-47 7.5h-165v-71z" />
    <glyph glyph-name="uni044C" unicode="&#x44c;" horiz-adv-x="613" 
d="M200 306h166q91 0 147.5 -43t56.5 -114q0 -68 -56.5 -108.5t-147.5 -40.5h-303v520h137v-214zM200 118h165q32 0 47.5 5t18 10t2.5 16t-2.5 18t-18.5 14.5t-47 7.5h-165v-71z" />
    <glyph glyph-name="uni044D" unicode="&#x44d;" horiz-adv-x="539" 
d="M242 526q43 0 88.5 -16.5t86 -48t66 -84.5t24.5 -118q0 -65 -26 -117.5t-66 -84t-85 -48t-88 -16.5q-58 0 -119 29.5t-99 82.5l122 52q30 -45 96 -45q37 0 69 21.5t48 60.5h-82v124h84q-14 43 -47 66t-72 23q-66 0 -96 -45l-122 52q38 53 99 82.5t119 29.5z" />
    <glyph glyph-name="uni044E" unicode="&#x44e;" horiz-adv-x="837" 
d="M537 526q42 0 86.5 -17t85 -48.5t66.5 -84.5t26 -117q0 -65 -26 -118t-66.5 -84t-85 -47.5t-86.5 -16.5q-80 0 -158 53t-100 148h-74v-194h-137v520h137v-202h73q21 97 99.5 152.5t159.5 55.5zM537 112q50 0 88.5 39.5t38.5 107.5q0 69 -38.5 108.5t-88.5 39.5
q-51 0 -89.5 -39.5t-38.5 -108.5q0 -68 38.5 -107.5t89.5 -39.5z" />
    <glyph glyph-name="uni044F" unicode="&#x44f;" horiz-adv-x="679" 
d="M321 520h288v-520h-137v149h-105l-137 -149h-167l162 168q-57 24 -92.5 70.5t-35.5 103.5q0 77 65 127.5t159 50.5zM472 266v137h-151q-41 0 -64 -17t-23 -44q0 -29 24 -52.5t63 -23.5h151z" />
    <glyph glyph-name="uni0451" unicode="&#x451;" horiz-adv-x="611" 
d="M241 778v-145h-145v145h145zM500 778v-145h-145v145h145zM307 526q44 0 88 -17t83 -48.5t63.5 -84.5t24.5 -117q0 -26 -3 -50h-377q11 -45 47.5 -71t76.5 -26q61 0 96 37l117 -61q-40 -47 -97 -71t-116 -24q-42 0 -87 16.5t-85.5 47.5t-66.5 84t-26 118q0 64 25 117
t64.5 84.5t84 48.5t88.5 17zM307 407q-42 0 -75.5 -25t-44.5 -71h241q-11 46 -45.5 71t-75.5 25z" />
    <glyph glyph-name="uni0453" unicode="&#x453;" horiz-adv-x="554" 
d="M444 767l-113 -145h-123l44 145h192zM499 520v-117h-294v-403h-137v520h431z" />
    <glyph glyph-name="uni0454" unicode="&#x454;" horiz-adv-x="541" 
d="M310 112q65 0 97 45l121 -52q-38 -54 -98.5 -83t-119.5 -29q-43 0 -88 16.5t-85 48t-66 84t-26 117.5t25.5 118t66 84.5t85.5 48t88 16.5q59 0 119.5 -29t98.5 -83l-121 -52q-32 45 -97 45q-39 0 -72 -23t-47 -66h85v-124h-83q16 -39 48 -60.5t69 -21.5z" />
    <glyph glyph-name="uni0457" unicode="&#x457;" horiz-adv-x="287" 
d="M86 778v-145h-145v145h145zM345 778v-145h-145v145h145zM212 520v-520h-137v520h137z" />
    <glyph glyph-name="uni0490" unicode="&#x490;" horiz-adv-x="570" 
d="M527 747v-164h-327v-583h-137v700h325v47h139z" />
    <glyph glyph-name="uni0491" unicode="&#x491;" horiz-adv-x="630" 
d="M360 566h139v-163h-294v-403h-137v520h292v46z" />
    <glyph glyph-name="Wgrave" unicode="&#x1e80;" horiz-adv-x="1077" 
d="M369 947h192l44 -145h-123zM1037 700l-266 -700h-34l-198 434l-198 -434h-35l-266 700h150l147 -403l182 403h40l183 -403l145 403h150z" />
    <glyph glyph-name="wgrave" unicode="&#x1e81;" 
d="M237 767h192l44 -145h-123zM794 520l-215 -520h-22l-149 292l-151 -292h-22l-214 520h135l104 -262l135 262h25l135 -262l104 262h135z" />
    <glyph glyph-name="Wacute" unicode="&#x1e82;" horiz-adv-x="1077" 
d="M705 947l-113 -145h-123l44 145h192zM1037 700l-266 -700h-34l-198 434l-198 -434h-35l-266 700h150l147 -403l182 403h40l183 -403l145 403h150z" />
    <glyph glyph-name="wacute" unicode="&#x1e83;" 
d="M573 767l-113 -145h-123l44 145h192zM794 520l-215 -520h-22l-149 292l-151 -292h-22l-214 520h135l104 -262l135 262h25l135 -262l104 262h135z" />
    <glyph glyph-name="Wdieresis" unicode="&#x1e84;" horiz-adv-x="1077" 
d="M482 958v-145h-145v145h145zM741 958v-145h-145v145h145zM1037 700l-266 -700h-34l-198 434l-198 -434h-35l-266 700h150l147 -403l182 403h40l183 -403l145 403h150z" />
    <glyph glyph-name="wdieresis" unicode="&#x1e85;" 
d="M350 778v-145h-145v145h145zM609 778v-145h-145v145h145zM794 520l-215 -520h-22l-149 292l-151 -292h-22l-214 520h135l104 -262l135 262h25l135 -262l104 262h135z" />
    <glyph glyph-name="Ygrave" unicode="&#x1ef2;" horiz-adv-x="738" 
d="M199 947h192l44 -145h-123zM703 700l-266 -386v-314h-137v314l-265 386h156l178 -262l177 262h157z" />
    <glyph glyph-name="ygrave" unicode="&#x1ef3;" horiz-adv-x="608" 
d="M378 622h-123l-113 145h192zM452 520h135l-288 -710h-134l83 205l-220 505h135l150 -345z" />
    <glyph glyph-name="endash" unicode="&#x2013;" horiz-adv-x="600" 
d="M555 331v-112h-510v112h510z" />
    <glyph glyph-name="emdash" unicode="&#x2014;" horiz-adv-x="660" 
d="M615 331v-112h-570v112h570z" />
    <glyph glyph-name="quoteleft" unicode="&#x2018;" horiz-adv-x="283" 
d="M238 700l-19 -155h-184l78 155h125z" />
    <glyph glyph-name="quoteright" unicode="&#x2019;" horiz-adv-x="270" 
d="M37 545l20 155h183l-78 -155h-125z" />
    <glyph glyph-name="quotesinglbase" unicode="&#x201a;" horiz-adv-x="322" 
d="M49 -135l19 155h184l-78 -155h-125z" />
    <glyph glyph-name="quotedblleft" unicode="&#x201c;" horiz-adv-x="531" 
d="M238 700l-19 -155h-184l78 155h125zM486 700l-19 -155h-184l78 155h125z" />
    <glyph glyph-name="quotedblright" unicode="&#x201d;" horiz-adv-x="539" 
d="M37 545l19 155h184l-78 -155h-125zM284 545l19 155h184l-78 -155h-125z" />
    <glyph glyph-name="quotedblbase" unicode="&#x201e;" horiz-adv-x="569" 
d="M49 -135l19 155h184l-78 -155h-125zM297 -135l19 155h183l-78 -155h-124z" />
    <glyph glyph-name="dagger" unicode="&#x2020;" horiz-adv-x="376" 
d="M331 565v-117h-109l-21 -136h-24l-21 136h-111v117h92l-21 135h145l-21 -135h91z" />
    <glyph glyph-name="daggerdbl" unicode="&#x2021;" horiz-adv-x="366" 
d="M215 448l-9 -56h-45l-9 56h-112v117h93l-22 135h145l-22 -135h92v-117h-111zM206 392h1l-23 -163l-23 163l3 -18h39zM184 229l4 -33h-9zM8 196h171l-1 -9h-181zM368 187h-178l-1 9h169zM178 187h12l35 -248h-82z" />
    <glyph glyph-name="bullet" unicode="&#x2022;" horiz-adv-x="240" 
d="M195 379v-150h-150v150h150z" />
    <glyph glyph-name="ellipsis" unicode="&#x2026;" horiz-adv-x="752" 
d="M189 150v-150h-152v150h152zM436 150v-150h-152v150h152zM683 150v-150h-152v150h152z" />
    <glyph glyph-name="perthousand" unicode="&#x2030;" horiz-adv-x="1023" 
d="M159 705q52 0 88 -35.5t36 -87.5t-36 -87.5t-88 -35.5t-88 35.5t-36 87.5t36 87.5t88 35.5zM501 702l108 -68l-425 -634l-110 68zM159 604q-9 0 -15 -6.5t-6 -15.5t6 -15.5t15 -6.5t15 6.5t6 15.5t-6 15.5t-15 6.5zM539 241q52 0 88 -35.5t36 -87.5t-36 -87.5t-88 -35.5
t-88 35.5t-36 87.5t36 87.5t88 35.5zM864 241q52 0 88 -35.5t36 -87.5t-36 -87.5t-88 -35.5t-88 35.5t-36 87.5t36 87.5t88 35.5zM539 140q-9 0 -15 -6.5t-6 -15.5t6 -15.5t15 -6.5t15 6.5t6 15.5t-6 15.5t-15 6.5zM864 140q-9 0 -15 -6.5t-6 -15.5t6 -15.5t15 -6.5t15 6.5
t6 15.5t-6 15.5t-15 6.5z" />
    <glyph glyph-name="guilsinglleft" unicode="&#x2039;" horiz-adv-x="215" 
d="M24 433l152 82v-113l-92 -94l92 -96v-112l-152 81v252z" />
    <glyph glyph-name="guilsinglright" unicode="&#x203a;" horiz-adv-x="201" 
d="M191 493v-253l-152 -81v113l92 95l-92 94v113z" />
    <glyph glyph-name="fraction" unicode="&#x2044;" horiz-adv-x="108" 
d="M288 700l-430 -700h-48l436 700h42z" />
    <glyph glyph-name="Euro" unicode="&#x20ac;" horiz-adv-x="693" 
d="M586 187l86 -104q-98 -90 -234 -90q-100 0 -190 58.5t-133 154.5h-80v104h52q-2 26 -2 39q0 19 1 28h-51v104h75q41 102 133 164t195 62q137 0 232 -87l-87 -104q-64 55 -142 55q-101 0 -162 -90h78v-104h-116q0 -5 -0.5 -14t-0.5 -13q0 -20 3 -40h114v-104h-69
q61 -77 153 -77q75 0 145 58z" />
    <glyph glyph-name="hryvnia" unicode="&#x20b4;" horiz-adv-x="627" 
d="M592 377h-127q-46 -36 -123 -62l-13 -5h263v-104h-134l111 -49q-28 -76 -98 -120t-167 -44q-42 0 -84 12.5t-79.5 36.5t-61 65t-23.5 92v7h-20v104h53q27 38 73 67h-126v104h346q13 16 13 40q0 29 -26.5 46.5t-65.5 17.5q-78 0 -106 -57l-123 41q29 58 90 98t145 40
q93 0 160.5 -52t67.5 -134q0 -24 -4 -40h59v-104zM309 115q49 0 88 26t55 65h-255v-7q0 -42 33 -63t79 -21z" />
    <glyph glyph-name="trademark" unicode="&#x2122;" horiz-adv-x="582" 
d="M236 700v-44h-59v-136h-53v136h-59v44h171zM517 700v-180h-51v76l-63 -76h-18l-64 76v-76h-50v180h28l94 -116l94 116h30z" />
    <glyph glyph-name="oneeighth" unicode="&#x215b;" horiz-adv-x="556" 
d="M100 701v-261h-37v221l-17 -11l-18 31l35 20h37zM503 700l-430 -700h-48l436 700h42zM439 263q36 0 57.5 -20t21.5 -47q0 -34 -30 -53q43 -21 43 -66q0 -34 -27 -56.5t-65 -22.5q-37 0 -64 22.5t-27 56.5q0 45 43 66q-30 19 -30 53q0 26 21.5 46.5t56.5 20.5zM439 232
q-20 0 -30.5 -10.5t-10.5 -25.5t12.5 -27t28.5 -12q17 0 29 11.5t12 27.5q0 36 -41 36zM439 126q-22 0 -38 -14t-16 -35q0 -20 16 -34t38 -14q24 0 39 13t15 35t-15 35.5t-39 13.5z" />
    <glyph glyph-name="threeeighths" unicode="&#x215c;" horiz-adv-x="574" 
d="M116 703q32 0 56 -20.5t24 -47.5q0 -32 -30 -53q42 -18 42 -66q0 -34 -27.5 -57t-64.5 -23q-41 0 -68 27.5t-23 63.5h38q-7 -23 10.5 -41t42.5 -18q22 0 38 13.5t16 34.5q0 28 -20 39t-54 5v32q63 3 63 43q0 15 -12.5 26t-30.5 11q-22 0 -35.5 -16t-10.5 -42h-38
q-4 38 21.5 63.5t62.5 25.5zM523 700l-430 -700h-48l436 700h42zM457 263q36 0 57.5 -20t21.5 -47q0 -34 -30 -53q43 -21 43 -66q0 -34 -27 -56.5t-65 -22.5q-37 0 -64 22.5t-27 56.5q0 45 43 66q-30 19 -30 53q0 26 21.5 46.5t56.5 20.5zM457 232q-20 0 -30.5 -10.5
t-10.5 -25.5t12.5 -27t28.5 -12q17 0 29 11.5t12 27.5q0 36 -41 36zM457 126q-22 0 -38 -14t-16 -35q0 -20 16 -34t38 -14q24 0 39 13t15 35t-15 35.5t-39 13.5z" />
    <glyph glyph-name="fiveeighths" unicode="&#x215d;" horiz-adv-x="576" 
d="M186 701v-32h-104l-8 -58q22 10 45 10q35 0 63 -26.5t28 -65.5t-28 -66t-67 -27q-33 0 -58.5 18.5t-31.5 43.5l33 19q2 -20 17.5 -34.5t39.5 -14.5q23 0 40 17.5t17 43.5q0 25 -16.5 42.5t-36.5 17.5q-35 0 -57 -29l-32 8l18 133h138zM523 700l-430 -700h-48l436 700h42z
M459 263q36 0 57.5 -20t21.5 -47q0 -34 -30 -53q43 -21 43 -66q0 -34 -27 -56.5t-65 -22.5q-37 0 -64 22.5t-27 56.5q0 45 43 66q-30 19 -30 53q0 26 21.5 46.5t56.5 20.5zM459 232q-20 0 -30.5 -10.5t-10.5 -25.5t12.5 -27t28.5 -12q17 0 29 11.5t12 27.5q0 36 -41 36z
M459 126q-22 0 -38 -14t-16 -35q0 -20 16 -34t38 -14q24 0 39 13t15 35t-15 35.5t-39 13.5z" />
    <glyph glyph-name="seveneighths" unicode="&#x215e;" horiz-adv-x="556" 
d="M200 701l-102 -261h-39l89 229h-121v32h173zM503 700l-430 -700h-48l436 700h42zM439 263q36 0 57.5 -20t21.5 -47q0 -34 -30 -53q43 -21 43 -66q0 -34 -27 -56.5t-65 -22.5q-37 0 -64 22.5t-27 56.5q0 45 43 66q-30 19 -30 53q0 26 21.5 46.5t56.5 20.5zM439 232
q-20 0 -30.5 -10.5t-10.5 -25.5t12.5 -27t28.5 -12q17 0 29 11.5t12 27.5q0 36 -41 36zM439 126q-22 0 -38 -14t-16 -35q0 -20 16 -34t38 -14q24 0 39 13t15 35t-15 35.5t-39 13.5z" />
    <glyph glyph-name="partialdiff" unicode="&#x2202;" horiz-adv-x="561" 
d="M88 700h151l159 -226q6 -9 29 -40t33 -47.5t25.5 -46.5t22 -61t6.5 -66q0 -95 -72.5 -159t-164.5 -64q-91 0 -162 64t-71 159q0 89 71.5 160t155.5 71q2 0 1 1q-6 4 -8 11zM278 317q-45 0 -75 -32t-30 -72q0 -46 29.5 -75t75.5 -29q47 0 77.5 29t30.5 75q0 41 -29 72.5
t-79 31.5z" />
    <glyph glyph-name="product" unicode="&#x220f;" horiz-adv-x="735" 
d="M45 800h645v-990h-132v868h-381v-868h-132v990z" />
    <glyph glyph-name="summation" unicode="&#x2211;" horiz-adv-x="692" 
d="M647 800v-122h-385l205 -373l-205 -373h385v-122h-602l275 495l-275 495h602z" />
    <glyph glyph-name="minus" unicode="&#x2212;" horiz-adv-x="425" 
d="M380 331v-112h-335v112h335z" />
    <glyph glyph-name="radical" unicode="&#x221a;" horiz-adv-x="830" 
d="M785 800l-274 -990h-158l-186 429h-122v151h213l165 -403l227 813h135z" />
    <glyph glyph-name="infinity" unicode="&#x221e;" horiz-adv-x="855" 
d="M618 428q75 0 131 -49.5t56 -116.5q0 -69 -56 -119t-131 -50q-99 0 -190 83q-91 -83 -189 -83q-76 0 -132.5 50t-56.5 119q0 67 56.5 116.5t132.5 49.5q97 0 189 -82q92 82 190 82zM241 197q40 0 60.5 10.5t52.5 54.5q-32 43 -52.5 54t-60.5 11q-29 0 -47 -20t-18 -45
t18 -45t47 -20zM615 197q29 0 46.5 20t17.5 45t-17.5 45t-46.5 20q-40 0 -60.5 -10.5t-53.5 -54.5q33 -44 53 -54.5t61 -10.5z" />
    <glyph glyph-name="integral" unicode="&#x222b;" horiz-adv-x="304" 
d="M289 800v-117q-24 0 -38 -5t-20 -19t-7 -25.5t-1 -37.5v-9v-593q0 -184 -203 -184v117q24 0 38 5t20 19t7 25t1 36v11v593q0 184 203 184z" />
    <glyph glyph-name="approxequal" unicode="&#x2248;" horiz-adv-x="527" 
d="M175 442q44 0 108.5 -35t92.5 -35q23 0 38.5 7t15.5 17h52q0 -56 -33 -93t-94 -37q-43 0 -109.5 40t-96.5 40q-23 0 -38 -9.5t-14 -23.5h-51q0 56 32.5 92.5t96.5 36.5zM175 282q44 0 108.5 -35t92.5 -35q23 0 38.5 7t15.5 17h52q0 -56 -33 -93t-94 -37q-43 0 -109.5 40
t-96.5 40q-23 0 -38 -9.5t-14 -23.5h-51q0 56 32.5 92.5t96.5 36.5z" />
    <glyph glyph-name="notequal" unicode="&#x2260;" horiz-adv-x="425" 
d="M380 299h-103l-18 -48h121v-112h-165l-54 -139h-115l54 139h-55v112h99l18 48h-117v112h161l58 150h115l-58 -150h59v-112z" />
    <glyph glyph-name="lessequal" unicode="&#x2264;" horiz-adv-x="418" 
d="M388 593v-115l-186 -103l186 -102v-116l-343 198v40zM388 114v-112h-335v112h335z" />
    <glyph glyph-name="greaterequal" unicode="&#x2265;" horiz-adv-x="434" 
d="M46 593l343 -198v-40l-343 -198v116l185 102l-185 103v115zM46 114h335v-112h-335v112z" />
    <glyph glyph-name="lozenge" unicode="&#x25ca;" horiz-adv-x="593" 
d="M393 700l155 -350l-155 -350h-193l-155 350l155 350h193zM297 96l112 254l-112 254l-113 -254z" />
    <glyph glyph-name="i.loclTRK" horiz-adv-x="287" 
d="M213 759v-139h-139v139h139zM212 520v-520h-137v520h137z" />
    <glyph glyph-name="f_t" horiz-adv-x="783" 
d="M663 112q49 0 82 18v-118q-36 -18 -115 -18q-59 0 -95.5 35.5t-36.5 131.5v242h-276v-403h-137v403h-65v117h65v16q0 54 18 90.5t48 53t56 22.5t55 6q68 0 131 -33l-44 -94q-41 14 -79 14q-48 0 -48 -62v-13h276v90h137v-90h109v-117h-109v-241q0 -16 8 -33t20 -17z" />
    <glyph glyph-name="t_t" horiz-adv-x="775" 
d="M655 112q49 0 82 18v-118q-36 -18 -115 -18q-59 0 -95.5 35.5t-36.5 131.5v242h-255v-241q0 -50 42 -50q35 0 68 12v-112q-36 -18 -101 -18q-69 0 -107.5 35.5t-38.5 131.5v242h-70v117h70v90h137v-90h255v90h137v-90h109v-117h-109v-241q0 -16 8 -33t20 -17z" />
    <glyph glyph-name="zero.tf" horiz-adv-x="700" 
d="M357 707q127 0 214 -90t87 -254v-26q0 -164 -87 -254t-214 -90q-126 0 -213.5 90.5t-87.5 253.5v26q0 163 87.5 253.5t213.5 90.5zM357 590q-46 0 -79.5 -21t-51 -55.5t-25.5 -72t-8 -78.5v-26q0 -41 8 -78.5t25.5 -72t51 -55t79.5 -20.5t79.5 20.5t51 55t25.5 72t8 78.5
v26q0 41 -8 78.5t-25.5 72t-51 55.5t-79.5 21z" />
    <glyph glyph-name="one.tf" horiz-adv-x="700" 
d="M416 700v-700h-137v583h-116v117h253z" />
    <glyph glyph-name="two.tf" horiz-adv-x="700" 
d="M344 707q104 0 172 -67.5t68 -152.5q0 -65 -31 -116.5t-135 -173.5l-67 -78h223v-119h-470v37l167 199l51 60.5l41.5 49.5l30.5 37t24 32t14.5 24.5t9.5 24.5t2 23q0 54 -31.5 77t-68.5 23q-34 0 -64 -23.5t-30 -71.5v-19h-140v19q0 83 65 149t169 66z" />
    <glyph glyph-name="three.tf" horiz-adv-x="700" 
d="M619 700l-153 -267q59 -15 99 -71t40 -132q0 -109 -76 -174.5t-183 -65.5q-109 0 -180 64.5t-71 158.5l137 -1q0 -53 36.5 -78.5t77.5 -25.5q25 0 50 8t48.5 37.5t23.5 76.5q0 57 -52.5 95.5t-140.5 22.5l132 235h-286v117h498z" />
    <glyph glyph-name="four.tf" horiz-adv-x="700" 
d="M530 700v-395h75v-118h-75v-187h-137v187h-310v21l398 492h49zM393 415l-70 -110h70v110z" />
    <glyph glyph-name="five.tf" horiz-adv-x="700" 
d="M523 700v-117h-249l-12 -117q10 -4 12.5 -3t21.5 4.5t42 3.5q102 0 176 -67.5t74 -172.5q0 -103 -72.5 -172t-172.5 -69q-94 0 -151.5 38t-94.5 105l109 54q6 -4 17.5 -19t22.5 -27t37 -22.5t60 -10.5t71 30.5t37 92.5q0 36 -12.5 62t-31.5 38t-36 17t-33 5h-13.5h-12
h-10t-10.5 -1t-9 -2t-10 -2.5l-10.5 -4t-12.5 -6t-14 -7.5l-121 26l44 344h364z" />
    <glyph glyph-name="six.tf" horiz-adv-x="700" 
d="M539 700l-175 -244q-2 -8 -8 -12q84 0 156 -71t72 -160q0 -95 -71.5 -159t-162.5 -64q-92 0 -164.5 64t-72.5 159q0 43 14 86.5t24 61.5t43 64t35 49l159 226h151zM349 317q-49 0 -78 -31.5t-29 -72.5q0 -46 30 -75t77 -29q46 0 75.5 29t29.5 75q0 40 -30 72t-75 32z" />
    <glyph glyph-name="seven.tf" horiz-adv-x="700" 
d="M613 700l-270 -700h-145l225 583h-295v117h485z" />
    <glyph glyph-name="eight.tf" horiz-adv-x="700" 
d="M495 399q49 -23 80 -71.5t31 -108.5q0 -100 -77 -163t-173 -63q-95 0 -172 63t-77 163q0 60 31 108.5t80 71.5q-64 53 -64 126q0 76 56.5 129t145.5 53q90 0 146.5 -53t56.5 -129q0 -73 -64 -126zM288 518q0 -29 19.5 -50.5t48.5 -21.5t49 21.5t20 50.5t-20.5 49
t-48.5 20q-27 0 -47.5 -20t-20.5 -49zM356 116q43 0 73.5 29t30.5 74q0 51 -32 80t-72 29t-72 -29t-32 -80q0 -45 31 -74t73 -29z" />
    <glyph glyph-name="nine.tf" horiz-adv-x="700" 
d="M161 -1l175 244q0 8 7 12q-83 0 -155 71t-72 160q0 95 71 159t162 64q92 0 164.5 -64t72.5 -159q0 -35 -6.5 -66.5t-21.5 -60.5t-25.5 -46.5t-32.5 -47.5l-29 -40l-160 -226h-150zM351 382q49 0 78 31.5t29 72.5q0 46 -30 75t-77 29q-46 0 -75.5 -29t-29.5 -75
q0 -40 30 -72t75 -32z" />
    <glyph glyph-name="zero.dnom" horiz-adv-x="260" 
d="M130 263q47 0 76 -35t29 -91v-13q0 -56 -29 -91t-76 -35q-45 0 -75 35t-30 91v13q0 56 30 91t75 35zM130 232q-29 0 -48.5 -25.5t-19.5 -69.5v-13q0 -44 19.5 -69.5t48.5 -25.5q31 0 49.5 25t18.5 70v13q0 45 -18.5 70t-49.5 25z" />
    <glyph glyph-name="one.dnom" horiz-adv-x="122" 
d="M97 261v-261h-37v221l-17 -11l-18 31l35 20h37z" />
    <glyph glyph-name="two.dnom" horiz-adv-x="221" 
d="M109 264q34 0 59 -22.5t25 -52.5q0 -26 -14.5 -47t-53.5 -61l-47 -49h118v-32h-168v32l68 69q28 29 36.5 38.5t15.5 22.5t7 27q0 18 -14 31t-32 13q-19 0 -33 -13t-14 -37v-14h-37v14q0 35 24.5 58t59.5 23z" />
    <glyph glyph-name="three.dnom" horiz-adv-x="233" 
d="M116 263q32 0 56 -20.5t24 -47.5q0 -32 -30 -53q42 -18 42 -66q0 -34 -27.5 -57t-64.5 -23q-41 0 -68 27.5t-23 63.5h38q-7 -23 10.5 -41t42.5 -18q22 0 38 13.5t16 34.5q0 28 -20 39t-54 5v32q63 3 63 43q0 15 -12.5 26t-30.5 11q-22 0 -35.5 -16t-10.5 -42h-38
q-4 38 21.5 63.5t62.5 25.5z" />
    <glyph glyph-name="four.dnom" horiz-adv-x="246" 
d="M194 261v-154h27v-31h-27v-76h-37v76h-132l132 185h37zM157 202l-65 -95h65v95z" />
    <glyph glyph-name="five.dnom" horiz-adv-x="235" 
d="M186 261v-32h-104l-8 -58q22 10 45 10q35 0 63 -26.5t28 -65.5t-28 -66t-67 -27q-33 0 -58.5 18.5t-31.5 43.5l33 19q2 -20 17.5 -34.5t39.5 -14.5q23 0 40 17.5t17 43.5q0 25 -16.5 42.5t-36.5 17.5q-35 0 -57 -29l-32 8l18 133h138z" />
    <glyph glyph-name="six.dnom" horiz-adv-x="223" 
d="M174 261l-68 -96h6q34 0 60 -25t26 -59q0 -35 -26 -60t-60 -25t-60.5 25t-26.5 60q0 16 5.5 31.5t10 23t18 25l16.5 21.5l57 79h42zM112 133q-22 0 -36 -14t-14 -38q0 -23 15.5 -38t34.5 -15q18 0 33.5 15t15.5 38t-15 37.5t-34 14.5z" />
    <glyph glyph-name="seven.dnom" horiz-adv-x="223" 
d="M198 261l-102 -261h-39l89 229h-121v32h173z" />
    <glyph glyph-name="eight.dnom" horiz-adv-x="233" 
d="M116 263q36 0 57.5 -20t21.5 -47q0 -34 -30 -53q43 -21 43 -66q0 -34 -27 -56.5t-65 -22.5q-37 0 -64 22.5t-27 56.5q0 45 43 66q-30 19 -30 53q0 26 21.5 46.5t56.5 20.5zM116 232q-20 0 -30.5 -10.5t-10.5 -25.5t12.5 -27t28.5 -12q18 0 29.5 11.5t11.5 27.5
q0 36 -41 36zM116 126q-22 0 -38 -14t-16 -35q0 -20 16 -34t38 -14q24 0 39 13t15 35t-15 35.5t-39 13.5z" />
    <glyph glyph-name="nine.dnom" horiz-adv-x="224" 
d="M112 264q34 0 60.5 -24.5t26.5 -59.5q0 -13 -2.5 -24t-9 -22.5t-10.5 -18t-14.5 -19.5l-14.5 -18l-56 -78h-43l68 95h-5q-35 0 -61 25.5t-26 59.5q0 35 26.5 59.5t60.5 24.5zM112 232q-19 0 -34.5 -15t-15.5 -37q0 -23 15.5 -38t34.5 -15q22 0 35.5 14.5t13.5 38.5
q0 22 -15.5 37t-33.5 15z" />
    <glyph glyph-name="zero.numr" horiz-adv-x="260" 
d="M130 703q47 0 76 -35t29 -91v-13q0 -56 -29 -91t-76 -35q-45 0 -75 35t-30 91v13q0 56 30 91t75 35zM130 672q-29 0 -48.5 -25.5t-19.5 -69.5v-13q0 -44 19.5 -69.5t48.5 -25.5q31 0 49.5 25t18.5 70v13q0 45 -18.5 70t-49.5 25z" />
    <glyph glyph-name="one.numr" horiz-adv-x="122" 
d="M97 701v-261h-37v221l-17 -11l-18 31l35 20h37z" />
    <glyph glyph-name="two.numr" horiz-adv-x="221" 
d="M109 704q34 0 59 -22.5t25 -52.5q0 -26 -14.5 -47t-53.5 -61l-47 -49h118v-32h-168v32l68 69q28 29 36.5 38.5t15.5 22.5t7 27q0 18 -14 31t-32 13q-19 0 -33 -13t-14 -37v-14h-37v14q0 35 24.5 58t59.5 23z" />
    <glyph glyph-name="three.numr" horiz-adv-x="233" 
d="M116 703q32 0 56 -20.5t24 -47.5q0 -32 -30 -53q42 -18 42 -66q0 -34 -27.5 -57t-64.5 -23q-41 0 -68 27.5t-23 63.5h38q-7 -23 10.5 -41t42.5 -18q22 0 38 13.5t16 34.5q0 28 -20 39t-54 5v32q63 3 63 43q0 15 -12.5 26t-30.5 11q-22 0 -35.5 -16t-10.5 -42h-38
q-4 38 21.5 63.5t62.5 25.5z" />
    <glyph glyph-name="four.numr" horiz-adv-x="246" 
d="M194 701v-154h27v-31h-27v-76h-37v76h-132l132 185h37zM157 642l-65 -95h65v95z" />
    <glyph glyph-name="five.numr" horiz-adv-x="235" 
d="M186 701v-32h-104l-8 -58q22 10 45 10q35 0 63 -26.5t28 -65.5t-28 -66t-67 -27q-33 0 -58.5 18.5t-31.5 43.5l33 19q2 -20 17.5 -34.5t39.5 -14.5q23 0 40 17.5t17 43.5q0 25 -16.5 42.5t-36.5 17.5q-35 0 -57 -29l-32 8l18 133h138z" />
    <glyph glyph-name="six.numr" horiz-adv-x="223" 
d="M174 701l-68 -96h6q34 0 60 -25t26 -59q0 -35 -26 -60t-60 -25t-60.5 25t-26.5 60q0 16 5.5 31.5t10 23t18 25l16.5 21.5l57 79h42zM112 573q-22 0 -36 -14t-14 -38q0 -23 15.5 -38t34.5 -15q18 0 33.5 15t15.5 38t-15 37.5t-34 14.5z" />
    <glyph glyph-name="seven.numr" horiz-adv-x="223" 
d="M198 701l-102 -261h-39l89 229h-121v32h173z" />
    <glyph glyph-name="eight.numr" horiz-adv-x="233" 
d="M116 703q36 0 57.5 -20t21.5 -47q0 -34 -30 -53q43 -21 43 -66q0 -34 -27 -56.5t-65 -22.5q-37 0 -64 22.5t-27 56.5q0 45 43 66q-30 19 -30 53q0 26 21.5 46.5t56.5 20.5zM116 672q-20 0 -30.5 -10.5t-10.5 -25.5t12.5 -27t28.5 -12q18 0 29.5 11.5t11.5 27.5
q0 36 -41 36zM116 566q-22 0 -38 -14t-16 -35q0 -20 16 -34t38 -14q24 0 39 13t15 35t-15 35.5t-39 13.5z" />
    <glyph glyph-name="nine.numr" horiz-adv-x="224" 
d="M112 704q34 0 60.5 -24.5t26.5 -59.5q0 -13 -2.5 -24t-9 -22.5t-10.5 -18t-14.5 -19.5l-14.5 -18l-56 -78h-43l68 95h-5q-35 0 -61 25.5t-26 59.5q0 35 26.5 59.5t60.5 24.5zM112 672q-19 0 -34.5 -15t-15.5 -37q0 -23 15.5 -38t34.5 -15q22 0 35.5 14.5t13.5 38.5
q0 22 -15.5 37t-33.5 15z" />
    </font>
</defs>
</svg>
